<svg width="50" height="50" viewBox="0 0 50 50" fill="none" xmlns="http://www.w3.org/2000/svg">
<path d="M13.7513 41.9168L24.5725 44.7993C26.1101 45.2098 27.7465 45.0166 29.1462 44.2593L44.995 35.7068C45.7238 35.3117 46.2933 34.6764 46.6066 33.9089C46.9199 33.1414 46.9578 32.2891 46.7137 31.4968C46.4287 30.5749 45.8 29.823 44.9444 29.378C44.0888 28.933 43.1113 28.853 42.1925 29.1499L31.9913 32.4499C31.5842 32.053 31.0925 31.7534 30.5531 31.5737L21.7887 28.6518C20.5381 28.2349 19.3056 28.203 18.1138 28.1718L13.7513 28.1393V26.2593H3.125V43.7593H13.7513V41.9168ZM17.5994 30.658L18.0481 30.6705C19.1494 30.6993 20.1 30.7243 20.9981 31.0237L29.7625 33.9455C30.0736 34.0483 30.3328 34.2676 30.4855 34.5575C30.6382 34.8474 30.6725 35.1852 30.5812 35.4999C30.4911 35.8188 30.2793 36.0895 29.9915 36.2538C29.7037 36.418 29.3629 36.4626 29.0425 36.378L19.045 33.7874L18.4181 36.2074L28.4156 38.7974C28.7299 38.8791 29.0534 38.9205 29.3781 38.9205C30.1944 38.9204 30.9883 38.6536 31.639 38.1608C32.2897 37.668 32.7617 36.9762 32.9831 36.1905C33.1256 35.6968 33.1619 35.1968 33.1075 34.7162L42.9625 31.528C43.0985 31.4836 43.2419 31.4669 43.3844 31.4787C43.527 31.4905 43.6657 31.5306 43.7925 31.5968C44.0506 31.7312 44.24 31.958 44.3262 32.2355C44.3998 32.4746 44.3883 32.7317 44.2937 32.9632C44.1992 33.1947 44.0274 33.3864 43.8075 33.5055L27.9588 42.0593C27.1193 42.5143 26.1374 42.6303 25.215 42.3837L13.7513 39.3299V30.6368L17.5994 30.658ZM11.2513 41.2593H5.625V28.7593H11.2513V41.2593ZM16.26 23.7593L43.76 23.758V5.03616L16.26 4.98804V23.7593ZM18.76 7.49241L41.26 7.53179V21.258L18.76 21.2593V7.49241Z" fill="#F5F5F4"/>
<path d="M30.01 11.4456C30.5631 11.4456 31.0138 11.8231 31.0138 12.2868H33.5138C33.5138 10.865 32.5756 9.65059 31.26 9.16934V8.52246H28.76V9.16934C27.4438 9.65059 26.5056 10.865 26.5056 12.2868C26.5056 14.1293 28.0775 15.6287 30.01 15.6287C30.5631 15.6287 31.0138 16.0062 31.0138 16.47C31.0138 16.9343 30.5638 17.3118 30.01 17.3118C29.4563 17.3118 29.0056 16.9343 29.0056 16.47H26.5056C26.5056 17.8925 27.4438 19.1068 28.76 19.5881V20.235H31.26V19.5881C32.5756 19.1068 33.5138 17.8925 33.5138 16.47C33.5138 14.6275 31.9419 13.1287 30.01 13.1287C29.4563 13.1287 29.0056 12.7512 29.0056 12.2868C29.0056 11.8231 29.4556 11.4456 30.01 11.4456ZM36.0444 13.1331H38.7494V15.6331H36.0444V13.1331ZM21.27 13.1331H23.975V15.6331H21.27V13.1331Z" fill="#F5F5F4"/>
</svg>
