<svg width="105" height="114" viewBox="0 0 105 114" fill="none" xmlns="http://www.w3.org/2000/svg">
<mask id="path-1-outside-1_15_200" maskUnits="userSpaceOnUse" x="0" y="0" width="105" height="114" fill="black">
<rect fill="white" width="105" height="114"/>
<path d="M52.3552 22.0329C58.1393 22.0329 62.6964 17.4757 62.6964 11.6917C62.6964 5.90767 58.1393 1.35055 52.3552 1.35055C46.5712 1.35055 42.0141 6.08294 42.0141 11.6917C42.0141 17.4757 46.5712 22.0329 52.3552 22.0329ZM52.3552 4.85602C56.2113 4.85602 59.1909 8.01095 59.1909 11.6917C59.1909 15.5477 56.036 18.5274 52.3552 18.5274C48.4992 18.5274 45.5196 15.3725 45.5196 11.6917C45.5196 8.01095 48.4992 4.85602 52.3552 4.85602ZM27.6416 20.1049C32.8998 20.1049 37.1064 15.8983 37.1064 10.6401C37.1064 5.38185 32.8998 1.35055 27.6416 1.35055C22.3834 1.35055 18.1768 5.55712 18.1768 10.8153C18.1768 16.0736 22.3834 20.1049 27.6416 20.1049ZM27.6416 4.85602C30.9718 4.85602 33.6009 7.48513 33.6009 10.8153C33.6009 13.9703 30.9718 16.5994 27.6416 16.5994C24.3114 16.5994 21.6823 13.9703 21.6823 10.6401C21.6823 7.48513 24.3114 4.85602 27.6416 4.85602ZM67.2535 10.8153C67.2535 11.3412 67.2535 11.867 67.4288 12.2175C68.1299 16.5994 71.9859 20.1049 76.7183 20.1049C78.2958 20.1049 79.8732 19.579 81.1002 18.8779C81.2754 18.8779 81.2754 18.7027 81.4507 18.7027C81.626 18.5274 81.8013 18.5274 81.9765 18.3521C84.6056 16.5994 86.1831 13.795 86.1831 10.4648C86.1831 5.20657 81.9765 1 76.7183 1C71.4601 1 67.2535 5.20657 67.2535 10.4648V10.8153ZM76.7183 4.85602C80.0485 4.85602 82.6776 7.48513 82.6776 10.8153C82.6776 12.7433 81.626 14.4961 80.2238 15.5477C79.1721 16.2488 78.1205 16.5994 76.8936 16.5994C73.5634 16.5994 70.9343 13.9703 70.9343 10.8153C70.9343 7.48513 73.5634 4.85602 76.7183 4.85602ZM87.41 75.8419V59.7167C87.9358 59.892 88.6369 60.0673 89.338 60.0673C92.3177 60.0673 94.5962 57.6135 94.5962 54.4585V34.1268C94.5962 32.7246 94.421 31.4977 93.8951 30.2707C93.8951 29.9202 93.8951 29.5696 93.7199 29.2191C92.1424 25.7136 88.8122 23.4351 85.3067 23.0845H68.831C66.2019 23.0845 63.748 24.1361 61.9953 25.8889H43.4163C42.8905 25.8889 42.3646 25.8889 42.0141 26.0642C40.0861 24.3114 37.6322 23.2598 35.1784 23.2598H19.9296C14.3208 23.2598 9.58842 28.1674 9.58842 34.302V54.6338C9.58842 56.036 10.1142 57.4382 11.1659 58.4898C12.2175 59.5415 13.4444 60.2426 15.0219 60.2426C15.723 60.2426 16.2488 60.0673 16.9499 59.892V76.0172C6.60876 80.0485 1 85.482 1 91.6166C1 103.535 23.6103 113 52.3552 113C81.1002 113 103.71 103.535 103.71 91.6166C103.535 85.3067 97.7512 79.8732 87.41 75.8419ZM69.0063 26.59H84.4304C88.1111 26.59 91.266 29.9202 91.266 34.1268V54.2833C91.266 55.5102 90.3897 56.3865 89.338 56.3865C88.8122 56.3865 88.2864 56.036 88.1111 55.8607C87.7606 55.5102 87.5853 54.8091 87.5853 54.2833V41.1377C87.5853 40.2613 86.8842 39.385 85.8326 39.385C84.9562 39.385 84.0798 40.0861 84.0798 41.1377V83.9045C84.0798 85.6573 82.8529 87.0595 81.2754 87.0595C79.698 87.0595 78.471 85.6573 78.471 83.9045V60.2426C78.471 59.3662 77.77 58.4898 76.7183 58.4898C75.8419 58.4898 74.9656 59.1909 74.9656 60.2426V83.7293C74.9656 85.482 73.7387 86.8842 72.1612 86.8842C71.2848 86.8842 70.5837 86.3584 70.2332 86.0078C69.7074 85.3067 69.3568 84.6056 69.3568 83.7293V66.2019C71.1095 65.1502 72.3365 63.2222 72.3365 60.9437V38.1581C72.3365 33.4257 69.8826 29.3944 66.2019 27.2911C67.0782 26.7653 68.1299 26.59 69.0063 26.59ZM43.5915 29.3944H60.9437C65.3255 29.3944 68.831 33.2504 68.831 38.1581V60.9437C68.831 62.3459 67.7793 63.5728 66.5524 63.5728C65.3255 63.5728 64.2739 62.3459 64.2739 60.9437V46.0454C64.2739 45.169 63.5728 44.2926 62.5211 44.2926C61.6448 44.2926 60.7684 44.9937 60.7684 46.0454V94.2457C60.7684 96.349 59.1909 98.1017 57.4382 98.1017C55.6854 98.1017 54.108 96.349 54.108 94.2457V67.6041C54.108 66.7277 53.4069 65.8513 52.3552 65.8513C51.4789 65.8513 50.6025 66.5524 50.6025 67.6041V94.0704C50.6025 96.1737 49.025 97.9265 47.2723 97.9265C45.5196 97.9265 43.9421 96.1737 43.9421 94.0704V45.8701C43.9421 44.9937 43.241 44.1174 42.1894 44.1174C41.313 44.1174 40.4366 44.8185 40.4366 45.8701V60.7684C40.4366 62.1706 39.385 63.3975 38.1581 63.3975C36.9311 63.3975 35.8795 62.1706 35.8795 60.7684V37.9828C35.7042 33.2504 39.385 29.3944 43.5915 29.3944ZM16.7746 54.4585C16.7746 55.6854 15.8983 56.5618 14.8466 56.5618C14.3208 56.5618 13.9703 56.3865 13.6197 56.036C13.2692 55.6854 13.0939 54.9843 13.0939 54.4585V34.1268C13.0939 29.9202 16.0736 26.59 19.9296 26.59H35.1784C36.23 26.59 37.2817 26.9405 38.1581 27.2911C34.6526 29.3944 32.1987 33.4257 32.1987 37.9828V60.7684C32.1987 62.8717 33.2504 64.7997 34.8279 65.8513V83.7293C34.8279 85.482 33.6009 86.8842 32.0235 86.8842C31.3224 86.8842 30.6213 86.5336 30.0955 86.0078C29.5696 85.482 29.2191 84.6056 29.2191 83.7293V60.2426C29.2191 59.3662 28.518 58.4898 27.4664 58.4898C26.59 58.4898 25.7136 59.1909 25.7136 60.2426V83.7293C25.7136 85.482 24.4867 86.8842 22.9092 86.8842C21.3318 86.8842 20.1049 85.482 20.1049 83.7293V41.1377C20.1049 40.2613 19.4038 39.385 18.3521 39.385C17.4757 39.385 16.5994 40.0861 16.5994 41.1377L16.7746 54.4585ZM52.18 109.319C23.6103 109.319 4.3302 100.03 4.3302 91.4413C4.3302 87.2347 8.88732 82.8529 16.7746 79.5227V83.7293C16.7746 87.41 19.579 90.3897 23.0845 90.3897C24.8372 90.3897 26.4147 89.5133 27.6416 88.2864C28.8685 89.5133 30.446 90.2144 32.1987 90.2144C35.7042 90.2144 38.5086 87.2347 38.5086 83.554V66.7277C39.2097 66.7277 39.9108 66.5524 40.4366 66.2019V93.7199C40.4366 97.7512 43.5915 101.081 47.2723 101.081C49.3756 101.081 51.1283 100.03 52.3552 98.6275C53.5822 100.205 55.3349 101.081 57.4382 101.081C61.1189 101.081 64.2739 97.7512 64.2739 93.8951V66.5524C64.7997 66.7277 65.3255 66.903 66.0266 67.0782V83.9045C66.0266 85.6573 66.7277 87.2347 67.7793 88.6369C69.0063 89.8638 70.5837 90.5649 72.3365 90.5649C74.0892 90.5649 75.6667 89.6886 76.8936 88.4617C78.1205 89.6886 79.698 90.5649 81.4507 90.5649C84.9562 90.5649 87.7606 87.5853 87.7606 83.9045V79.698C95.8232 83.0282 100.38 87.2347 100.38 91.6166C100.03 100.03 80.7496 109.319 52.18 109.319Z"/>
</mask>
<path d="M52.3552 22.0329C58.1393 22.0329 62.6964 17.4757 62.6964 11.6917C62.6964 5.90767 58.1393 1.35055 52.3552 1.35055C46.5712 1.35055 42.0141 6.08294 42.0141 11.6917C42.0141 17.4757 46.5712 22.0329 52.3552 22.0329ZM52.3552 4.85602C56.2113 4.85602 59.1909 8.01095 59.1909 11.6917C59.1909 15.5477 56.036 18.5274 52.3552 18.5274C48.4992 18.5274 45.5196 15.3725 45.5196 11.6917C45.5196 8.01095 48.4992 4.85602 52.3552 4.85602ZM27.6416 20.1049C32.8998 20.1049 37.1064 15.8983 37.1064 10.6401C37.1064 5.38185 32.8998 1.35055 27.6416 1.35055C22.3834 1.35055 18.1768 5.55712 18.1768 10.8153C18.1768 16.0736 22.3834 20.1049 27.6416 20.1049ZM27.6416 4.85602C30.9718 4.85602 33.6009 7.48513 33.6009 10.8153C33.6009 13.9703 30.9718 16.5994 27.6416 16.5994C24.3114 16.5994 21.6823 13.9703 21.6823 10.6401C21.6823 7.48513 24.3114 4.85602 27.6416 4.85602ZM67.2535 10.8153C67.2535 11.3412 67.2535 11.867 67.4288 12.2175C68.1299 16.5994 71.9859 20.1049 76.7183 20.1049C78.2958 20.1049 79.8732 19.579 81.1002 18.8779C81.2754 18.8779 81.2754 18.7027 81.4507 18.7027C81.626 18.5274 81.8013 18.5274 81.9765 18.3521C84.6056 16.5994 86.1831 13.795 86.1831 10.4648C86.1831 5.20657 81.9765 1 76.7183 1C71.4601 1 67.2535 5.20657 67.2535 10.4648V10.8153ZM76.7183 4.85602C80.0485 4.85602 82.6776 7.48513 82.6776 10.8153C82.6776 12.7433 81.626 14.4961 80.2238 15.5477C79.1721 16.2488 78.1205 16.5994 76.8936 16.5994C73.5634 16.5994 70.9343 13.9703 70.9343 10.8153C70.9343 7.48513 73.5634 4.85602 76.7183 4.85602ZM87.41 75.8419V59.7167C87.9358 59.892 88.6369 60.0673 89.338 60.0673C92.3177 60.0673 94.5962 57.6135 94.5962 54.4585V34.1268C94.5962 32.7246 94.421 31.4977 93.8951 30.2707C93.8951 29.9202 93.8951 29.5696 93.7199 29.2191C92.1424 25.7136 88.8122 23.4351 85.3067 23.0845H68.831C66.2019 23.0845 63.748 24.1361 61.9953 25.8889H43.4163C42.8905 25.8889 42.3646 25.8889 42.0141 26.0642C40.0861 24.3114 37.6322 23.2598 35.1784 23.2598H19.9296C14.3208 23.2598 9.58842 28.1674 9.58842 34.302V54.6338C9.58842 56.036 10.1142 57.4382 11.1659 58.4898C12.2175 59.5415 13.4444 60.2426 15.0219 60.2426C15.723 60.2426 16.2488 60.0673 16.9499 59.892V76.0172C6.60876 80.0485 1 85.482 1 91.6166C1 103.535 23.6103 113 52.3552 113C81.1002 113 103.71 103.535 103.71 91.6166C103.535 85.3067 97.7512 79.8732 87.41 75.8419ZM69.0063 26.59H84.4304C88.1111 26.59 91.266 29.9202 91.266 34.1268V54.2833C91.266 55.5102 90.3897 56.3865 89.338 56.3865C88.8122 56.3865 88.2864 56.036 88.1111 55.8607C87.7606 55.5102 87.5853 54.8091 87.5853 54.2833V41.1377C87.5853 40.2613 86.8842 39.385 85.8326 39.385C84.9562 39.385 84.0798 40.0861 84.0798 41.1377V83.9045C84.0798 85.6573 82.8529 87.0595 81.2754 87.0595C79.698 87.0595 78.471 85.6573 78.471 83.9045V60.2426C78.471 59.3662 77.77 58.4898 76.7183 58.4898C75.8419 58.4898 74.9656 59.1909 74.9656 60.2426V83.7293C74.9656 85.482 73.7387 86.8842 72.1612 86.8842C71.2848 86.8842 70.5837 86.3584 70.2332 86.0078C69.7074 85.3067 69.3568 84.6056 69.3568 83.7293V66.2019C71.1095 65.1502 72.3365 63.2222 72.3365 60.9437V38.1581C72.3365 33.4257 69.8826 29.3944 66.2019 27.2911C67.0782 26.7653 68.1299 26.59 69.0063 26.59ZM43.5915 29.3944H60.9437C65.3255 29.3944 68.831 33.2504 68.831 38.1581V60.9437C68.831 62.3459 67.7793 63.5728 66.5524 63.5728C65.3255 63.5728 64.2739 62.3459 64.2739 60.9437V46.0454C64.2739 45.169 63.5728 44.2926 62.5211 44.2926C61.6448 44.2926 60.7684 44.9937 60.7684 46.0454V94.2457C60.7684 96.349 59.1909 98.1017 57.4382 98.1017C55.6854 98.1017 54.108 96.349 54.108 94.2457V67.6041C54.108 66.7277 53.4069 65.8513 52.3552 65.8513C51.4789 65.8513 50.6025 66.5524 50.6025 67.6041V94.0704C50.6025 96.1737 49.025 97.9265 47.2723 97.9265C45.5196 97.9265 43.9421 96.1737 43.9421 94.0704V45.8701C43.9421 44.9937 43.241 44.1174 42.1894 44.1174C41.313 44.1174 40.4366 44.8185 40.4366 45.8701V60.7684C40.4366 62.1706 39.385 63.3975 38.1581 63.3975C36.9311 63.3975 35.8795 62.1706 35.8795 60.7684V37.9828C35.7042 33.2504 39.385 29.3944 43.5915 29.3944ZM16.7746 54.4585C16.7746 55.6854 15.8983 56.5618 14.8466 56.5618C14.3208 56.5618 13.9703 56.3865 13.6197 56.036C13.2692 55.6854 13.0939 54.9843 13.0939 54.4585V34.1268C13.0939 29.9202 16.0736 26.59 19.9296 26.59H35.1784C36.23 26.59 37.2817 26.9405 38.1581 27.2911C34.6526 29.3944 32.1987 33.4257 32.1987 37.9828V60.7684C32.1987 62.8717 33.2504 64.7997 34.8279 65.8513V83.7293C34.8279 85.482 33.6009 86.8842 32.0235 86.8842C31.3224 86.8842 30.6213 86.5336 30.0955 86.0078C29.5696 85.482 29.2191 84.6056 29.2191 83.7293V60.2426C29.2191 59.3662 28.518 58.4898 27.4664 58.4898C26.59 58.4898 25.7136 59.1909 25.7136 60.2426V83.7293C25.7136 85.482 24.4867 86.8842 22.9092 86.8842C21.3318 86.8842 20.1049 85.482 20.1049 83.7293V41.1377C20.1049 40.2613 19.4038 39.385 18.3521 39.385C17.4757 39.385 16.5994 40.0861 16.5994 41.1377L16.7746 54.4585ZM52.18 109.319C23.6103 109.319 4.3302 100.03 4.3302 91.4413C4.3302 87.2347 8.88732 82.8529 16.7746 79.5227V83.7293C16.7746 87.41 19.579 90.3897 23.0845 90.3897C24.8372 90.3897 26.4147 89.5133 27.6416 88.2864C28.8685 89.5133 30.446 90.2144 32.1987 90.2144C35.7042 90.2144 38.5086 87.2347 38.5086 83.554V66.7277C39.2097 66.7277 39.9108 66.5524 40.4366 66.2019V93.7199C40.4366 97.7512 43.5915 101.081 47.2723 101.081C49.3756 101.081 51.1283 100.03 52.3552 98.6275C53.5822 100.205 55.3349 101.081 57.4382 101.081C61.1189 101.081 64.2739 97.7512 64.2739 93.8951V66.5524C64.7997 66.7277 65.3255 66.903 66.0266 67.0782V83.9045C66.0266 85.6573 66.7277 87.2347 67.7793 88.6369C69.0063 89.8638 70.5837 90.5649 72.3365 90.5649C74.0892 90.5649 75.6667 89.6886 76.8936 88.4617C78.1205 89.6886 79.698 90.5649 81.4507 90.5649C84.9562 90.5649 87.7606 87.5853 87.7606 83.9045V79.698C95.8232 83.0282 100.38 87.2347 100.38 91.6166C100.03 100.03 80.7496 109.319 52.18 109.319Z" fill="#0FB9EE"/>
<path d="M52.3552 22.0329C58.1393 22.0329 62.6964 17.4757 62.6964 11.6917C62.6964 5.90767 58.1393 1.35055 52.3552 1.35055C46.5712 1.35055 42.0141 6.08294 42.0141 11.6917C42.0141 17.4757 46.5712 22.0329 52.3552 22.0329ZM52.3552 4.85602C56.2113 4.85602 59.1909 8.01095 59.1909 11.6917C59.1909 15.5477 56.036 18.5274 52.3552 18.5274C48.4992 18.5274 45.5196 15.3725 45.5196 11.6917C45.5196 8.01095 48.4992 4.85602 52.3552 4.85602ZM27.6416 20.1049C32.8998 20.1049 37.1064 15.8983 37.1064 10.6401C37.1064 5.38185 32.8998 1.35055 27.6416 1.35055C22.3834 1.35055 18.1768 5.55712 18.1768 10.8153C18.1768 16.0736 22.3834 20.1049 27.6416 20.1049ZM27.6416 4.85602C30.9718 4.85602 33.6009 7.48513 33.6009 10.8153C33.6009 13.9703 30.9718 16.5994 27.6416 16.5994C24.3114 16.5994 21.6823 13.9703 21.6823 10.6401C21.6823 7.48513 24.3114 4.85602 27.6416 4.85602ZM67.2535 10.8153C67.2535 11.3412 67.2535 11.867 67.4288 12.2175C68.1299 16.5994 71.9859 20.1049 76.7183 20.1049C78.2958 20.1049 79.8732 19.579 81.1002 18.8779C81.2754 18.8779 81.2754 18.7027 81.4507 18.7027C81.626 18.5274 81.8013 18.5274 81.9765 18.3521C84.6056 16.5994 86.1831 13.795 86.1831 10.4648C86.1831 5.20657 81.9765 1 76.7183 1C71.4601 1 67.2535 5.20657 67.2535 10.4648V10.8153ZM76.7183 4.85602C80.0485 4.85602 82.6776 7.48513 82.6776 10.8153C82.6776 12.7433 81.626 14.4961 80.2238 15.5477C79.1721 16.2488 78.1205 16.5994 76.8936 16.5994C73.5634 16.5994 70.9343 13.9703 70.9343 10.8153C70.9343 7.48513 73.5634 4.85602 76.7183 4.85602ZM87.41 75.8419V59.7167C87.9358 59.892 88.6369 60.0673 89.338 60.0673C92.3177 60.0673 94.5962 57.6135 94.5962 54.4585V34.1268C94.5962 32.7246 94.421 31.4977 93.8951 30.2707C93.8951 29.9202 93.8951 29.5696 93.7199 29.2191C92.1424 25.7136 88.8122 23.4351 85.3067 23.0845H68.831C66.2019 23.0845 63.748 24.1361 61.9953 25.8889H43.4163C42.8905 25.8889 42.3646 25.8889 42.0141 26.0642C40.0861 24.3114 37.6322 23.2598 35.1784 23.2598H19.9296C14.3208 23.2598 9.58842 28.1674 9.58842 34.302V54.6338C9.58842 56.036 10.1142 57.4382 11.1659 58.4898C12.2175 59.5415 13.4444 60.2426 15.0219 60.2426C15.723 60.2426 16.2488 60.0673 16.9499 59.892V76.0172C6.60876 80.0485 1 85.482 1 91.6166C1 103.535 23.6103 113 52.3552 113C81.1002 113 103.71 103.535 103.71 91.6166C103.535 85.3067 97.7512 79.8732 87.41 75.8419ZM69.0063 26.59H84.4304C88.1111 26.59 91.266 29.9202 91.266 34.1268V54.2833C91.266 55.5102 90.3897 56.3865 89.338 56.3865C88.8122 56.3865 88.2864 56.036 88.1111 55.8607C87.7606 55.5102 87.5853 54.8091 87.5853 54.2833V41.1377C87.5853 40.2613 86.8842 39.385 85.8326 39.385C84.9562 39.385 84.0798 40.0861 84.0798 41.1377V83.9045C84.0798 85.6573 82.8529 87.0595 81.2754 87.0595C79.698 87.0595 78.471 85.6573 78.471 83.9045V60.2426C78.471 59.3662 77.77 58.4898 76.7183 58.4898C75.8419 58.4898 74.9656 59.1909 74.9656 60.2426V83.7293C74.9656 85.482 73.7387 86.8842 72.1612 86.8842C71.2848 86.8842 70.5837 86.3584 70.2332 86.0078C69.7074 85.3067 69.3568 84.6056 69.3568 83.7293V66.2019C71.1095 65.1502 72.3365 63.2222 72.3365 60.9437V38.1581C72.3365 33.4257 69.8826 29.3944 66.2019 27.2911C67.0782 26.7653 68.1299 26.59 69.0063 26.59ZM43.5915 29.3944H60.9437C65.3255 29.3944 68.831 33.2504 68.831 38.1581V60.9437C68.831 62.3459 67.7793 63.5728 66.5524 63.5728C65.3255 63.5728 64.2739 62.3459 64.2739 60.9437V46.0454C64.2739 45.169 63.5728 44.2926 62.5211 44.2926C61.6448 44.2926 60.7684 44.9937 60.7684 46.0454V94.2457C60.7684 96.349 59.1909 98.1017 57.4382 98.1017C55.6854 98.1017 54.108 96.349 54.108 94.2457V67.6041C54.108 66.7277 53.4069 65.8513 52.3552 65.8513C51.4789 65.8513 50.6025 66.5524 50.6025 67.6041V94.0704C50.6025 96.1737 49.025 97.9265 47.2723 97.9265C45.5196 97.9265 43.9421 96.1737 43.9421 94.0704V45.8701C43.9421 44.9937 43.241 44.1174 42.1894 44.1174C41.313 44.1174 40.4366 44.8185 40.4366 45.8701V60.7684C40.4366 62.1706 39.385 63.3975 38.1581 63.3975C36.9311 63.3975 35.8795 62.1706 35.8795 60.7684V37.9828C35.7042 33.2504 39.385 29.3944 43.5915 29.3944ZM16.7746 54.4585C16.7746 55.6854 15.8983 56.5618 14.8466 56.5618C14.3208 56.5618 13.9703 56.3865 13.6197 56.036C13.2692 55.6854 13.0939 54.9843 13.0939 54.4585V34.1268C13.0939 29.9202 16.0736 26.59 19.9296 26.59H35.1784C36.23 26.59 37.2817 26.9405 38.1581 27.2911C34.6526 29.3944 32.1987 33.4257 32.1987 37.9828V60.7684C32.1987 62.8717 33.2504 64.7997 34.8279 65.8513V83.7293C34.8279 85.482 33.6009 86.8842 32.0235 86.8842C31.3224 86.8842 30.6213 86.5336 30.0955 86.0078C29.5696 85.482 29.2191 84.6056 29.2191 83.7293V60.2426C29.2191 59.3662 28.518 58.4898 27.4664 58.4898C26.59 58.4898 25.7136 59.1909 25.7136 60.2426V83.7293C25.7136 85.482 24.4867 86.8842 22.9092 86.8842C21.3318 86.8842 20.1049 85.482 20.1049 83.7293V41.1377C20.1049 40.2613 19.4038 39.385 18.3521 39.385C17.4757 39.385 16.5994 40.0861 16.5994 41.1377L16.7746 54.4585ZM52.18 109.319C23.6103 109.319 4.3302 100.03 4.3302 91.4413C4.3302 87.2347 8.88732 82.8529 16.7746 79.5227V83.7293C16.7746 87.41 19.579 90.3897 23.0845 90.3897C24.8372 90.3897 26.4147 89.5133 27.6416 88.2864C28.8685 89.5133 30.446 90.2144 32.1987 90.2144C35.7042 90.2144 38.5086 87.2347 38.5086 83.554V66.7277C39.2097 66.7277 39.9108 66.5524 40.4366 66.2019V93.7199C40.4366 97.7512 43.5915 101.081 47.2723 101.081C49.3756 101.081 51.1283 100.03 52.3552 98.6275C53.5822 100.205 55.3349 101.081 57.4382 101.081C61.1189 101.081 64.2739 97.7512 64.2739 93.8951V66.5524C64.7997 66.7277 65.3255 66.903 66.0266 67.0782V83.9045C66.0266 85.6573 66.7277 87.2347 67.7793 88.6369C69.0063 89.8638 70.5837 90.5649 72.3365 90.5649C74.0892 90.5649 75.6667 89.6886 76.8936 88.4617C78.1205 89.6886 79.698 90.5649 81.4507 90.5649C84.9562 90.5649 87.7606 87.5853 87.7606 83.9045V79.698C95.8232 83.0282 100.38 87.2347 100.38 91.6166C100.03 100.03 80.7496 109.319 52.18 109.319Z" stroke="#0FB9EE" stroke-width="2" mask="url(#path-1-outside-1_15_200)"/>
</svg>
