<svg width="108" height="108" viewBox="0 0 108 108" fill="none" xmlns="http://www.w3.org/2000/svg">
<path d="M78.2787 73.6742V62.4351" stroke="#0FB9EE" stroke-width="7" stroke-miterlimit="10" stroke-linecap="round" stroke-linejoin="round"/>
<path d="M76.102 53.4563V7.78823C76.102 5.69529 74.4067 4 72.3138 4H7.80916C5.71622 4 4 5.69529 4 7.78823V100.673C4 102.766 5.71622 104.461 7.80916 104.461H72.3138C72.8998 104.461 73.444 104.336 73.9254 104.085" stroke="#0FB9EE" stroke-width="7" stroke-miterlimit="10" stroke-linecap="round" stroke-linejoin="round"/>
<path d="M78.2822 104.462C92.3938 104.462 103.834 93.0218 103.834 78.9102C103.834 64.7985 92.3938 53.3588 78.2822 53.3588C64.1705 53.3588 52.7308 64.7985 52.7308 78.9102C52.7308 93.0218 64.1705 104.462 78.2822 104.462Z" stroke="#0FB9EE" stroke-width="7" stroke-miterlimit="10" stroke-linecap="round" stroke-linejoin="round"/>
<path d="M43.5316 62.4351H13.1043" stroke="#0FB9EE" stroke-width="7" stroke-miterlimit="10" stroke-linecap="round" stroke-linejoin="round"/>
<path d="M13.1085 33.3809H67.0019" stroke="#0FB9EE" stroke-width="7" stroke-miterlimit="10" stroke-linecap="round" stroke-linejoin="round"/>
<path d="M78.2822 84.1425C81.1719 84.1425 83.5145 81.7999 83.5145 78.9101C83.5145 76.0203 81.1719 73.6777 78.2822 73.6777C75.3924 73.6777 73.0498 76.0203 73.0498 78.9101C73.0498 81.7999 75.3924 84.1425 78.2822 84.1425Z" stroke="#0FB9EE" stroke-width="7" stroke-miterlimit="10" stroke-linecap="round" stroke-linejoin="round"/>
<path d="M13.1085 18.8578H67.0019" stroke="#0FB9EE" stroke-width="7" stroke-miterlimit="10" stroke-linecap="round" stroke-linejoin="round"/>
<path d="M13.1085 47.9037H67.0019" stroke="#0FB9EE" stroke-width="7" stroke-miterlimit="10" stroke-linecap="round" stroke-linejoin="round"/>
<path d="M73.0464 78.9067H64.6746" stroke="#0FB9EE" stroke-width="7" stroke-miterlimit="10" stroke-linecap="round" stroke-linejoin="round"/>
</svg>
