<svg width="50" height="50" viewBox="0 0 50 50" fill="none" xmlns="http://www.w3.org/2000/svg">
<g clip-path="url(#clip0_22_64)">
<path d="M27.0833 50H22.9167C21.1937 50 19.7917 48.5979 19.7917 46.875V42.9958C18.4582 42.6104 17.172 42.0769 15.9573 41.4052L13.2135 44.15C12.0323 45.3312 9.975 45.3292 8.79375 44.15L5.84687 41.2042C5.25625 40.6146 4.93125 39.8292 4.93125 38.9948C4.93125 38.1604 5.25625 37.375 5.84687 36.7854L8.59167 34.0396C7.91997 32.8258 7.3871 31.5403 7.00312 30.2073H3.125C1.40208 30.2073 0 28.8052 0 27.0823V22.9156C0 22.0802 0.325 21.2958 0.914583 20.7062C1.20427 20.4152 1.54877 20.1844 1.92817 20.0272C2.30756 19.8701 2.71434 19.7897 3.125 19.7906H7.00417C7.38958 18.4594 7.92083 17.175 8.59375 15.9583L5.85 13.2135C5.26466 12.6272 4.9359 11.8326 4.9359 11.0042C4.9359 10.1757 5.26466 9.38109 5.85 8.79479L8.79583 5.84792C9.97604 4.66875 12.0344 4.66667 13.2156 5.84792L15.9604 8.59271C17.1742 7.92192 18.4593 7.38909 19.7917 7.00417V3.125C19.7917 1.40208 21.1937 0 22.9167 0H27.0833C28.8062 0 30.2083 1.40208 30.2083 3.125V7.00417C31.5417 7.38958 32.825 7.92187 34.0396 8.59271L36.7844 5.84792C37.9656 4.66875 40.0229 4.66667 41.2042 5.84792L44.151 8.79375C44.7417 9.38333 45.0667 10.1687 45.0667 11.0031C45.0667 11.8375 44.7417 12.6229 44.151 13.2125L41.4073 15.9573C42.0792 17.1714 42.6124 18.4573 42.9969 19.7906H46.875C48.5979 19.7906 50 21.1927 50 22.9156V27.0823C50 27.9177 49.675 28.7021 49.0854 29.2917C48.4958 29.8813 47.7104 30.2073 46.875 30.2073H42.9958C42.6107 31.5404 42.0775 32.8262 41.4062 34.0406L44.15 36.7854C44.7353 37.3717 45.0641 38.1663 45.0641 38.9948C45.0641 39.8233 44.7353 40.6179 44.15 41.2042L41.2042 44.151C40.0229 45.3312 37.9656 45.3312 36.7844 44.151L34.0417 41.4062C32.8275 42.0774 31.5421 42.6106 30.2094 42.9958V46.875C30.208 47.7036 29.8782 48.4978 29.2922 49.0836C28.7062 49.6693 27.9119 49.9989 27.0833 50ZM15.7885 39.0604C15.975 39.0604 16.1635 39.1104 16.3312 39.2125C17.8012 40.1124 19.4029 40.7771 21.0781 41.1823C21.3053 41.2372 21.5074 41.3669 21.6519 41.5506C21.7964 41.7342 21.875 41.9611 21.875 42.1948V46.875C21.875 47.45 22.3427 47.9167 22.9167 47.9167H27.0833C27.6573 47.9167 28.125 47.45 28.125 46.875V42.1948C28.125 41.9611 28.2036 41.7342 28.3481 41.5506C28.4926 41.3669 28.6947 41.2372 28.9219 41.1823C30.5967 40.7773 32.198 40.113 33.6677 39.2135C34.0802 38.9625 34.6073 39.026 34.9479 39.3656L38.2583 42.6771C38.649 43.0667 39.3406 43.0687 39.7323 42.6771L42.6781 39.7302C42.8734 39.5349 42.9831 39.27 42.9831 38.9937C42.9831 38.7175 42.8734 38.4526 42.6781 38.2573L39.3667 34.9458C39.2013 34.7805 39.0964 34.5643 39.0688 34.3321C39.0412 34.0999 39.0925 33.8651 39.2146 33.6656C40.1139 32.196 40.7779 30.5947 41.1823 28.9198C41.237 28.6924 41.3666 28.4901 41.5503 28.3454C41.7339 28.2007 41.961 28.1219 42.1948 28.1219H46.875C47.0118 28.1224 47.1473 28.0959 47.2738 28.0439C47.4003 27.9919 47.5152 27.9154 47.6121 27.8187C47.7089 27.7221 47.7856 27.6073 47.8379 27.4809C47.8902 27.3545 47.9169 27.2191 47.9167 27.0823V22.9156C47.9167 22.3406 47.449 21.874 46.875 21.874H42.1948C41.9609 21.8741 41.7338 21.7954 41.5501 21.6507C41.3664 21.5059 41.2368 21.3035 41.1823 21.076C40.778 19.4011 40.1141 17.7998 39.2146 16.3302C39.0925 16.1307 39.0412 15.896 39.0688 15.6637C39.0964 15.4315 39.2013 15.2153 39.3667 15.05L42.6781 11.7385C42.8719 11.5437 42.9833 11.276 42.9833 11.0021C42.9833 10.7281 42.8719 10.4594 42.6781 10.2656L39.7312 7.31979C39.5324 7.13082 39.2686 7.02545 38.9943 7.02545C38.72 7.02545 38.4561 7.13082 38.2573 7.31979L34.9458 10.6313C34.781 10.7974 34.5647 10.9029 34.3322 10.9306C34.0998 10.9582 33.8648 10.9063 33.6656 10.7833C32.1966 9.88422 30.596 9.22031 28.9219 8.81563C28.6948 8.7613 28.4927 8.63204 28.3481 8.44871C28.2035 8.26538 28.1249 8.03869 28.125 7.80521V3.125C28.125 2.55 27.6573 2.08333 27.0833 2.08333H22.9167C22.3427 2.08333 21.875 2.55 21.875 3.125V7.80521C21.875 8.0389 21.7964 8.26581 21.6519 8.44945C21.5074 8.63309 21.3053 8.76279 21.0781 8.81771C19.4033 9.22233 17.802 9.88625 16.3323 10.7854C16.133 10.9076 15.8984 10.959 15.6663 10.9314C15.4342 10.9038 15.2182 10.7988 15.0531 10.6333L11.7417 7.32187C11.5428 7.1329 11.279 7.02753 11.0047 7.02753C10.7304 7.02753 10.4665 7.1329 10.2677 7.32187L7.32292 10.2677C7.12763 10.463 7.01793 10.728 7.01793 11.0042C7.01793 11.2804 7.12763 11.5453 7.32292 11.7406L10.6344 15.0521C10.7997 15.2174 10.9047 15.4336 10.9323 15.6658C10.9598 15.8981 10.9085 16.1328 10.7865 16.3323C9.88713 17.8016 9.2232 19.4025 8.81875 21.0771C8.76403 21.3044 8.63441 21.5067 8.45076 21.6515C8.2671 21.7962 8.04008 21.8749 7.80625 21.875H3.125C2.98814 21.8744 2.85252 21.901 2.72596 21.9531C2.5994 22.0052 2.4844 22.0818 2.38757 22.1785C2.29075 22.2752 2.21402 22.3902 2.1618 22.5167C2.10959 22.6432 2.08292 22.7788 2.08333 22.9156V27.0823C2.08333 27.6573 2.55104 28.124 3.125 28.124H7.80521C8.28646 28.124 8.70521 28.4531 8.81771 28.9219C9.22232 30.5964 9.88624 32.1973 10.7854 33.6667C10.9074 33.8662 10.9588 34.1009 10.9312 34.3331C10.9036 34.5653 10.7987 34.7815 10.6333 34.9469L7.32187 38.2594C7.12812 38.4542 7.01667 38.7219 7.01667 38.9958C7.01667 39.2698 7.12812 39.5385 7.32187 39.7323L10.2687 42.6781C10.4676 42.8671 10.7314 42.9725 11.0057 42.9725C11.28 42.9725 11.5439 42.8671 11.7427 42.6781L15.0531 39.3667C15.1493 39.2694 15.2638 39.1922 15.3901 39.1397C15.5163 39.0871 15.6518 39.0601 15.7885 39.0604Z" fill="#F5F5F4"/>
<path d="M25 35.4166C19.2562 35.4166 14.5833 30.7437 14.5833 24.9999C14.5833 19.2562 19.2562 14.5833 25 14.5833C30.7437 14.5833 35.4167 19.2562 35.4167 24.9999C35.4167 30.7437 30.7448 35.4166 25 35.4166ZM25 16.6666C20.4052 16.6666 16.6667 20.4051 16.6667 24.9999C16.6667 29.5947 20.4052 33.3333 25 33.3333C29.5948 33.3333 33.3333 29.5947 33.3333 24.9999C33.3333 20.4051 29.5958 16.6666 25 16.6666Z" fill="#F5F5F4"/>
</g>
<defs>
<clipPath id="clip0_22_64">
<rect width="50" height="50" fill="white"/>
</clipPath>
</defs>
</svg>
