<svg width="50" height="50" viewBox="0 0 50 50" fill="none" xmlns="http://www.w3.org/2000/svg">
<g clip-path="url(#clip0_22_46)">
<path d="M35.8398 27.8076C34.9935 28.5075 34.2692 29.2887 33.667 30.1514C32.3161 29.4678 30.9082 28.9632 29.4434 28.6377C27.9785 28.3122 26.4811 28.1413 24.9512 28.125C23.1934 28.125 21.5169 28.3447 19.9219 28.7842C18.3268 29.2236 16.8294 29.8421 15.4297 30.6396C14.0299 31.4372 12.7767 32.4056 11.6699 33.5449C10.5632 34.6842 9.59473 35.9456 8.76465 37.3291C7.93457 38.7126 7.31608 40.2181 6.90918 41.8457C6.50228 43.4733 6.28255 45.1497 6.25 46.875H3.125C3.125 44.4987 3.47493 42.2119 4.1748 40.0146C4.87467 37.8174 5.88379 35.8073 7.20215 33.9844C8.52051 32.1615 10.0911 30.5664 11.9141 29.1992C13.737 27.832 15.804 26.7822 18.1152 26.0498C17.2363 25.4639 16.4551 24.7884 15.7715 24.0234C15.0879 23.2585 14.502 22.4284 14.0137 21.5332C13.5254 20.638 13.151 19.694 12.8906 18.7012C12.6302 17.7083 12.5 16.6829 12.5 15.625C12.5 13.8997 12.8255 12.2803 13.4766 10.7666C14.1276 9.25293 15.0228 7.93457 16.1621 6.81152C17.3014 5.68848 18.6279 4.79329 20.1416 4.12598C21.6553 3.45866 23.2747 3.125 25 3.125C26.7253 3.125 28.3447 3.45052 29.8584 4.10156C31.3721 4.7526 32.6904 5.64779 33.8135 6.78711C34.9365 7.92643 35.8317 9.25293 36.499 10.7666C37.1663 12.2803 37.5 13.8997 37.5 15.625C37.5 16.6829 37.3698 17.7083 37.1094 18.7012C36.849 19.694 36.4827 20.6462 36.0107 21.5576C35.5387 22.4691 34.9447 23.2992 34.2285 24.0479C33.5124 24.7965 32.723 25.472 31.8604 26.0742C32.5602 26.3021 33.2357 26.5544 33.8867 26.8311C34.5378 27.1077 35.1888 27.4333 35.8398 27.8076ZM15.625 15.625C15.625 16.9271 15.8691 18.1396 16.3574 19.2627C16.8457 20.3857 17.513 21.3786 18.3594 22.2412C19.2057 23.1038 20.1986 23.7793 21.3379 24.2676C22.4772 24.7559 23.6979 25 25 25C26.2858 25 27.4984 24.7559 28.6377 24.2676C29.777 23.7793 30.7699 23.112 31.6162 22.2656C32.4626 21.4193 33.138 20.4264 33.6426 19.2871C34.1471 18.1478 34.3913 16.9271 34.375 15.625C34.375 14.3392 34.1309 13.1266 33.6426 11.9873C33.1543 10.848 32.487 9.85514 31.6406 9.00879C30.7943 8.16244 29.7933 7.48698 28.6377 6.98242C27.4821 6.47786 26.2695 6.23372 25 6.25C23.6979 6.25 22.4854 6.49414 21.3623 6.98242C20.2393 7.4707 19.2464 8.13802 18.3838 8.98438C17.5212 9.83073 16.8457 10.8317 16.3574 11.9873C15.8691 13.1429 15.625 14.3555 15.625 15.625ZM42.2363 28.1006C43.3105 28.1006 44.3278 28.304 45.2881 28.7109C46.2484 29.1178 47.0784 29.6794 47.7783 30.3955C48.4782 31.1117 49.0397 31.9417 49.4629 32.8857C49.8861 33.8298 50.0977 34.847 50.0977 35.9375C50.0977 37.0117 49.8942 38.0208 49.4873 38.9648C49.0804 39.9089 48.5189 40.7389 47.8027 41.4551C47.0866 42.1712 46.2484 42.7327 45.2881 43.1396C44.3278 43.5466 43.3105 43.7581 42.2363 43.7744C40.6576 43.7744 39.2171 43.335 37.915 42.4561L30.7861 49.585C30.4769 49.8942 30.1107 50.0488 29.6875 50.0488C29.2643 50.0488 28.8981 49.8942 28.5889 49.585C28.2796 49.2757 28.125 48.9095 28.125 48.4863C28.125 48.0632 28.2796 47.6969 28.5889 47.3877L35.7178 40.2588C34.8389 38.9567 34.3994 37.5163 34.3994 35.9375C34.3994 34.8633 34.6029 33.8542 35.0098 32.9102C35.4167 31.9661 35.9782 31.1361 36.6943 30.4199C37.4105 29.7038 38.2406 29.1423 39.1846 28.7354C40.1286 28.3285 41.1458 28.1169 42.2363 28.1006ZM42.2363 40.6494C42.8874 40.6494 43.4977 40.5273 44.0674 40.2832C44.637 40.0391 45.1335 39.7054 45.5566 39.2822C45.9798 38.8591 46.3216 38.3545 46.582 37.7686C46.8424 37.1826 46.9727 36.5723 46.9727 35.9375C46.9727 35.2865 46.8506 34.6761 46.6064 34.1064C46.3623 33.5368 46.0205 33.0404 45.5811 32.6172C45.1416 32.194 44.6452 31.8522 44.0918 31.5918C43.5384 31.3314 42.9199 31.2093 42.2363 31.2256C41.5853 31.2256 40.9749 31.3477 40.4053 31.5918C39.8356 31.8359 39.3392 32.1777 38.916 32.6172C38.4928 33.0566 38.151 33.5531 37.8906 34.1064C37.6302 34.6598 37.5081 35.2702 37.5244 35.9375C37.5244 36.5885 37.6465 37.1989 37.8906 37.7686C38.1348 38.3382 38.4684 38.8346 38.8916 39.2578C39.3148 39.681 39.8193 40.0228 40.4053 40.2832C40.9912 40.5436 41.6016 40.6657 42.2363 40.6494Z" fill="#F5F5F4"/>
</g>
<defs>
<clipPath id="clip0_22_46">
<rect width="50" height="50" fill="white"/>
</clipPath>
</defs>
</svg>
