<svg width="112" height="112" viewBox="0 0 112 112" fill="none" xmlns="http://www.w3.org/2000/svg">
<path d="M56 59.9437C39.4743 59.9437 26.0282 46.4975 26.0282 29.9718C26.0282 13.4461 39.4743 0 56 0C72.5257 0 85.9718 13.4461 85.9718 29.9718C85.9718 46.4975 72.5257 59.9437 56 59.9437ZM56 7.49296C43.6029 7.49296 33.5211 17.5747 33.5211 29.9718C33.5211 42.3689 43.6029 52.4507 56 52.4507C68.3971 52.4507 78.4789 42.3689 78.4789 29.9718C78.4789 17.5747 68.3971 7.49296 56 7.49296Z" fill="#0FB9EE"/>
<path d="M57.4723 45.7464H54.5277C52.4646 45.7381 50.4588 45.053 48.8065 43.7924C47.1542 42.5318 45.9429 40.7624 45.3516 38.7455C45.2024 38.2688 45.1481 37.7666 45.1918 37.2682C45.2355 36.7698 45.3763 36.2853 45.6061 35.8432C45.8358 35.4012 46.1498 35.0104 46.5296 34.6939C46.9094 34.3774 47.3474 34.1415 47.8178 34.0001C48.2882 33.8587 48.7815 33.8146 49.2688 33.8705C49.7561 33.9264 50.2276 34.081 50.6555 34.3254C51.0834 34.5698 51.4592 34.899 51.7607 35.2936C52.0622 35.6882 52.2834 36.1404 52.4113 36.6234C52.6873 37.5737 53.5596 38.2385 54.5277 38.2385H57.4723C58.0585 38.2385 58.6207 38.0008 59.0352 37.5779C59.4497 37.1549 59.6826 36.5812 59.6826 35.9831C59.6826 35.3849 59.4497 34.8112 59.0352 34.3883C58.6207 33.9653 58.0585 33.7277 57.4723 33.7277H54.5277C49.2495 33.7277 44.9577 29.3446 44.9577 23.9624C44.9577 18.5802 49.2495 14.1971 54.5277 14.1971H57.4723C61.5984 14.1971 65.2423 16.8788 66.549 20.8751C66.7094 21.3448 66.7768 21.8423 66.7472 22.3388C66.7177 22.8353 66.5917 23.3209 66.3768 23.7673C66.1618 24.2138 65.8621 24.6122 65.495 24.9394C65.1279 25.2667 64.7007 25.5163 64.2383 25.6738C63.7759 25.8312 63.2875 25.8934 62.8013 25.8566C62.3152 25.8199 61.8411 25.6849 61.4064 25.4597C60.9718 25.2344 60.5854 24.9233 60.2696 24.5445C59.9537 24.1656 59.7148 23.7264 59.5666 23.2525C59.4215 22.8028 59.1409 22.4114 58.7648 22.1342C58.3886 21.8569 57.9363 21.7081 57.4723 21.7089H54.5277C53.942 21.7089 53.3802 21.9463 52.9661 22.3689C52.5519 22.7915 52.3192 23.3647 52.3192 23.9624C52.3192 24.5601 52.5519 25.1333 52.9661 25.5559C53.3802 25.9785 53.942 26.2159 54.5277 26.2159H57.4723C62.7505 26.2159 67.0422 30.599 67.0422 35.9812C67.0422 41.3633 62.7505 45.7464 57.4723 45.7464Z" fill="#0FB9EE"/>
<path d="M56 18.4773C54.9883 18.4773 54.0549 18.0658 53.3493 17.3924C53.2 17.2054 53.0133 17.0183 52.9013 16.7939C52.7533 16.6031 52.6396 16.3879 52.5653 16.1579C52.458 15.9454 52.3813 15.7187 52.3376 15.4846C52.304 15.2227 52.2667 14.9982 52.2667 14.7364C52.2667 13.7637 52.6736 12.7911 53.3493 12.0803C54.7307 10.6962 57.232 10.6962 58.6507 12.0803C59.3227 12.7911 59.7333 13.7637 59.7333 14.7364C59.7333 14.9982 59.696 15.2227 59.6549 15.4846C59.616 15.7194 59.5404 15.9467 59.4309 16.1579C59.3552 16.3872 59.2416 16.6022 59.0949 16.7939C58.9456 17.0183 58.7963 17.2054 58.6469 17.3924C57.9413 18.0658 56.9707 18.4773 56 18.4773ZM56 48.4046C54.9883 48.4046 54.0549 47.9931 53.3493 47.3197C53.2 47.1326 53.0133 46.9456 52.9013 46.7211C52.7533 46.5303 52.6396 46.3151 52.5653 46.0852C52.458 45.8727 52.3813 45.646 52.3376 45.4118C52.304 45.15 52.2667 44.9255 52.2667 44.6636C52.2667 43.691 52.6736 42.7184 53.3493 42.0076C54.7307 40.6235 57.232 40.6235 58.6507 42.0076C59.3227 42.7184 59.7333 43.691 59.7333 44.6636C59.7333 44.9255 59.696 45.15 59.6549 45.4118C59.616 45.6467 59.5404 45.8739 59.4309 46.0852C59.3552 46.3145 59.2416 46.5295 59.0949 46.7211C58.9456 46.9456 58.7963 47.1326 58.6469 47.3197C57.9413 47.9931 56.9707 48.4046 56 48.4046ZM63.4667 112H3.73333C2.74319 112 1.7936 111.606 1.09347 110.904C0.393332 110.203 0 109.251 0 108.259V74.5909C0 73.5996 0.392 72.6456 1.09387 71.9461C1.96747 71.067 9.90453 63.3682 18.6667 63.3682C25.9243 63.3682 35.2875 68.8636 38.4347 70.85H56C57.6341 70.8525 59.2479 71.2127 60.7285 71.9056C62.2091 72.5984 63.5207 73.6071 64.5716 74.8611C65.6224 76.115 66.3871 77.5839 66.8121 79.165C67.2371 80.746 67.3121 82.4011 67.032 84.0143L96.4917 71.7142C98.1934 71.0018 100.044 70.7223 101.88 70.9005C103.716 71.0787 105.479 71.709 107.012 72.7354C108.548 73.7585 109.807 75.1466 110.678 76.7758C111.548 78.405 112.002 80.2248 112 82.0727C112 82.7266 111.829 83.3692 111.504 83.9363C111.179 84.5034 110.712 84.9753 110.148 85.3049L65.3483 111.491C64.7769 111.824 64.1277 112 63.4667 112ZM7.46667 104.518H62.4549L104.044 80.2098C103.754 79.7087 103.353 79.2812 102.872 78.9603C102.363 78.6139 101.775 78.4011 101.163 78.3417C100.55 78.2822 99.9324 78.3778 99.3664 78.6199L64.9077 93.0074C64.451 93.1975 63.9613 93.2953 63.4667 93.2954H33.6C32.6099 93.2954 31.6603 92.9013 30.9601 92.1998C30.26 91.4982 29.8667 90.5467 29.8667 89.5545C29.8667 88.5624 30.26 87.6109 30.9601 86.9093C31.6603 86.2078 32.6099 85.8136 33.6 85.8136H56C56.9613 85.7705 57.8689 85.3576 58.5339 84.6608C59.1989 83.9639 59.5701 83.0369 59.5701 82.0727C59.5701 81.1086 59.1989 80.1815 58.5339 79.4847C57.8689 78.7879 56.9613 78.3749 56 78.3318H37.3333C36.5979 78.3318 35.8736 78.1111 35.2613 77.7071C32.4053 75.7992 23.8448 70.85 18.6667 70.85C14.5973 70.85 9.90453 74.142 7.46667 76.2332V104.518Z" fill="#0FB9EE"/>
</svg>
