<svg width="50" height="49" viewBox="0 0 50 49" fill="none" xmlns="http://www.w3.org/2000/svg">
<path fill-rule="evenodd" clip-rule="evenodd" d="M8.78913 5.4152C0.387582 10.1142 -2.49522 20.5402 2.35477 28.6803C7.20633 36.8203 17.9657 39.6134 26.3672 34.9128C34.7688 30.2138 37.6516 19.7893 32.8016 11.6493C27.95 3.50926 17.1907 0.714655 8.78913 5.4152ZM10.3516 8.03723C17.2594 4.17233 26.1063 6.46887 30.0953 13.1632C34.0828 19.856 31.7125 28.4274 24.8047 32.2908C17.8969 36.1557 9.05007 33.8592 5.06101 27.1664C1.07352 20.4721 3.44383 11.9021 10.3516 8.03723Z" fill="#F5F5F4"/>
<path fill-rule="evenodd" clip-rule="evenodd" d="M29.7907 30.8177C29.6735 30.6212 29.5121 30.4527 29.3187 30.3247C29.1252 30.1967 28.9045 30.1124 28.6729 30.0781C28.4414 30.0438 28.2048 30.0604 27.9807 30.1266C27.7566 30.1928 27.5507 30.3068 27.3782 30.4604C26.5929 31.1609 25.7298 31.7747 24.8048 32.2907C24.0751 32.6994 23.3251 33.0385 22.561 33.311C22.3475 33.3874 22.1538 33.5079 21.9934 33.6643C21.8331 33.8207 21.7099 34.0092 21.6325 34.2165C21.5551 34.4239 21.5254 34.6451 21.5454 34.8647C21.5655 35.0843 21.6348 35.297 21.7485 35.488L28.1157 46.1728C28.7417 47.2074 29.7647 47.9601 30.9614 48.2667C32.1581 48.5732 33.4314 48.4087 34.5033 47.8091C35.5753 47.2094 36.3589 46.2233 36.6833 45.0659C37.0076 43.9085 36.8462 42.6738 36.2344 41.6312L29.7907 30.8177ZM28.0048 33.8772L33.5282 43.1451C33.7341 43.4931 33.7896 43.9059 33.6824 44.2933C33.5753 44.6808 33.3142 45.0114 32.9563 45.213C32.5974 45.4138 32.171 45.4682 31.7707 45.3643C31.3704 45.2604 31.0292 45.0067 30.8219 44.659L25.3329 35.4486C26.2693 35.0016 27.1633 34.4758 28.0048 33.8772ZM18.7501 4.55067V4.87009L18.7985 4.91703C18.9392 5.4484 19.3688 5.86774 19.9173 6.00701L20.3126 6.39153C20.223 6.39155 20.1336 6.38395 20.0454 6.36882C22.1327 6.71683 24.1153 7.50599 25.8523 8.68025C27.5892 9.85451 29.0379 11.385 30.0954 13.1631C31.5309 15.563 32.1936 18.3238 31.9985 21.0912C31.9839 21.2982 32.0135 21.5059 32.0852 21.7014C32.157 21.8969 32.2695 22.0761 32.4158 22.2277C32.562 22.3793 32.7388 22.5002 32.9353 22.5828C33.1318 22.6654 33.3437 22.708 33.5579 22.7079H45.3125C46.5563 22.7079 47.7485 22.2296 48.6266 21.3773C49.0622 20.9558 49.4077 20.4553 49.6434 19.9043C49.879 19.3534 50.0002 18.7628 50 18.1664V4.54159C50 3.33655 49.5063 2.18147 48.6266 1.33068C48.1916 0.908659 47.675 0.573909 47.1064 0.345572C46.5377 0.117235 45.9281 -0.000202201 45.3125 2.61338e-07H23.4376C22.1938 2.61338e-07 21.0016 0.478378 20.1235 1.33068C19.6879 1.75211 19.3424 2.25264 19.1068 2.80361C18.8711 3.35458 18.7499 3.94518 18.7501 4.54159V4.55067ZM22.1282 3.71654C22.2697 3.50489 22.4637 3.33095 22.6924 3.21063C22.9211 3.09031 23.1773 3.02743 23.4376 3.02773H45.3125C45.5179 3.02713 45.7214 3.06588 45.9112 3.14175C46.1011 3.21761 46.2736 3.32909 46.4188 3.46979C46.564 3.61048 46.6791 3.77762 46.7574 3.96156C46.8357 4.1455 46.8757 4.34262 46.875 4.54159V18.1664C46.8757 18.3653 46.8357 18.5625 46.7574 18.7464C46.6791 18.9303 46.564 19.0975 46.4188 19.2382C46.2736 19.3789 46.1011 19.4903 45.9112 19.5662C45.7214 19.6421 45.5179 19.6808 45.3125 19.6802H35.1501C35.0709 16.8553 34.2636 14.0945 32.8016 11.6492C31.6496 9.7109 30.1136 8.01226 28.2819 6.65092C26.4502 5.28957 24.3589 4.29235 22.1282 3.71654ZM21.6188 5.70877C21.4766 5.91858 21.2827 6.09083 21.0547 6.21001C20.8267 6.3292 20.5717 6.39158 20.3126 6.39153C20.3126 6.39153 21.1751 6.31583 21.6188 5.70877ZM21.8751 4.87464L21.872 4.97607L21.8735 4.93519L21.8751 4.87464Z" fill="#F5F5F4"/>
<path d="M42.1875 8.32631C41.3246 8.32631 40.625 7.64853 40.625 6.81245C40.625 5.97636 41.3246 5.29858 42.1875 5.29858C43.0505 5.29858 43.75 5.97636 43.75 6.81245C43.75 7.64853 43.0505 8.32631 42.1875 8.32631Z" fill="#F5F5F4"/>
<path d="M35.9376 36.3327C35.0746 36.3327 34.3751 35.6549 34.3751 34.8188C34.3751 33.9827 35.0746 33.3049 35.9376 33.3049C36.8005 33.3049 37.5001 33.9827 37.5001 34.8188C37.5001 35.6549 36.8005 36.3327 35.9376 36.3327Z" fill="#F5F5F4"/>
<path d="M42.1875 36.3327C41.3246 36.3327 40.625 35.6549 40.625 34.8188C40.625 33.9827 41.3246 33.3049 42.1875 33.3049C43.0505 33.3049 43.75 33.9827 43.75 34.8188C43.75 35.6549 43.0505 36.3327 42.1875 36.3327Z" fill="#F5F5F4"/>
<path fill-rule="evenodd" clip-rule="evenodd" d="M30.7625 9.84009C30.4779 9.84029 30.1986 9.91584 29.955 10.0586C29.7114 10.2013 29.5127 10.4058 29.3804 10.65C29.248 10.8942 29.187 11.1688 29.2039 11.4442C29.2209 11.7195 29.3152 11.9851 29.4766 12.2123C30.5076 13.6595 31.2481 15.2819 31.6594 16.9946C31.7392 17.3277 31.933 17.6249 32.2094 17.8377C32.4857 18.0504 32.8283 18.1663 33.1813 18.1663H40.625C41.4538 18.1663 42.2487 17.8473 42.8347 17.2795C43.4208 16.7117 43.75 15.9416 43.75 15.1386V12.8678C43.75 12.0648 43.4208 11.2947 42.8347 10.7269C42.2487 10.1591 41.4538 9.84009 40.625 9.84009H30.7625ZM33.4625 12.8678H40.625V15.1386H34.3766C34.1283 14.3615 33.8229 13.6026 33.4625 12.8678ZM40.2063 28.7634C40.4804 28.7635 40.7497 28.6938 40.9872 28.5612C41.2247 28.4286 41.4221 28.2378 41.5594 28.008C41.9578 27.3388 42.1875 26.5637 42.1875 25.7357V21.1941C42.1875 20.7926 42.0229 20.4075 41.7299 20.1236C41.4369 19.8397 41.0394 19.6802 40.625 19.6802H33.5578C33.1618 19.6801 32.7804 19.8257 32.4909 20.0876C32.2014 20.3496 32.0254 20.7083 31.9985 21.0911C31.8652 22.9977 31.333 24.8581 30.4344 26.5592C30.3132 26.7902 30.2552 27.0474 30.2657 27.3063C30.2763 27.5653 30.3551 27.8172 30.4947 28.0383C30.6343 28.2593 30.83 28.442 31.0632 28.5689C31.2963 28.6958 31.5592 28.7628 31.8266 28.7634H40.2063ZM39.0625 25.7357H34.186C34.5375 24.7516 34.7954 23.7374 34.9563 22.7079H39.0625V25.7357Z" fill="#F5F5F4"/>
<path fill-rule="evenodd" clip-rule="evenodd" d="M27.3501 30.4863L27.3188 30.5165L27.3032 30.5332L27.2829 30.5513L27.2688 30.5665L27.2626 30.5741L27.2126 30.6301L27.2048 30.6391L27.186 30.6649L27.1641 30.6906L27.1563 30.7012C26.9597 30.9672 26.8571 31.2877 26.8639 31.6148C26.8706 31.9419 26.9864 32.2582 27.1938 32.5163L33.5282 43.1452C33.8079 43.613 34.3235 43.9021 34.8813 43.9021H45.3125C46.5557 43.9021 47.748 43.4236 48.6271 42.5719C49.5062 41.7202 50 40.565 50 39.3605V30.2773C50 29.0728 49.5062 27.9177 48.6271 27.0659C47.748 26.2142 46.5557 25.7357 45.3125 25.7357H31.8266C31.5388 25.7355 31.2565 25.8122 31.0108 25.9575C30.7651 26.1028 30.5657 26.3111 30.4344 26.5593C29.66 28.029 28.6214 29.3531 27.3673 30.4696L27.3501 30.4863ZM30.3922 31.8275C31.2954 30.8957 32.0869 29.8678 32.7516 28.7635H45.3125C45.7269 28.7635 46.1244 28.923 46.4174 29.2069C46.7104 29.4908 46.875 29.8758 46.875 30.2773V39.3605C46.875 39.762 46.7104 40.1471 46.4174 40.431C46.1244 40.7149 45.7269 40.8744 45.3125 40.8744H35.7829L30.3922 31.8275ZM28.4204 33.078C28.2204 32.9584 26.3547 31.8018 27.1563 30.7012L27.186 30.6649L27.211 30.6331L27.2688 30.5665L27.3032 30.5332L27.3501 30.4863L27.3798 30.459C27.7204 30.1562 28.3579 32.8146 28.4204 33.078ZM17.1876 9.08325C15.53 9.08325 13.9403 9.72123 12.7682 10.8568C11.5961 11.9925 10.9376 13.5327 10.9376 15.1387C10.9376 16.7447 11.5961 18.2849 12.7682 19.4206C13.9403 20.5562 15.53 21.1942 17.1876 21.1942C18.8452 21.1942 20.4349 20.5562 21.607 19.4206C22.7791 18.2849 23.4376 16.7447 23.4376 15.1387C23.4376 13.5327 22.7791 11.9925 21.607 10.8568C20.4349 9.72123 18.8452 9.08325 17.1876 9.08325ZM17.1876 12.111C17.9993 12.1359 18.7691 12.4657 19.3342 13.0308C19.8993 13.5959 20.2153 14.3519 20.2153 15.1387C20.2153 15.9255 19.8993 16.6815 19.3342 17.2466C18.7691 17.8117 17.9993 18.1416 17.1876 18.1664C16.3759 18.1416 15.606 17.8117 15.0409 17.2466C14.4758 16.6815 14.1599 15.9255 14.1599 15.1387C14.1599 14.3519 14.4758 13.5959 15.0409 13.0308C15.606 12.4657 16.3759 12.1359 17.1876 12.111Z" fill="#F5F5F4"/>
<path fill-rule="evenodd" clip-rule="evenodd" d="M23.4376 28.7633C23.4376 28.7633 25.0001 28.6528 25.0001 27.2313V25.7356C25.0001 23.7281 24.177 21.8028 22.7118 20.3833C21.2467 18.9637 19.2596 18.1663 17.1876 18.1663H17.1845C15.1133 18.1663 13.1269 18.9634 11.6624 20.3824C10.1979 21.8013 9.37509 23.7258 9.37509 25.7325V27.2313C9.37509 28.6528 10.9376 28.7633 10.9376 28.7633H23.4376ZM21.8751 25.7356H12.5001V25.7325C12.5001 24.5288 12.9936 23.3745 13.8721 22.5233C14.7506 21.6722 15.9421 21.194 17.1845 21.194H17.1876C18.4308 21.194 19.6231 21.6725 20.5021 22.5242C21.3812 23.3759 21.8751 24.5311 21.8751 25.7356Z" fill="#F5F5F4"/>
</svg>
