<svg width="50" height="47" viewBox="0 0 50 47" fill="none" xmlns="http://www.w3.org/2000/svg">
<path d="M32.5 35.0627C32.0055 35.0627 31.5222 35.1998 31.1111 35.4566C30.7 35.7135 30.3795 36.0785 30.1903 36.5057C30.0011 36.9328 29.9516 37.4028 30.048 37.8562C30.1445 38.3096 30.3826 38.7262 30.7322 39.0531C31.0819 39.38 31.5273 39.6026 32.0123 39.6928C32.4972 39.783 32.9999 39.7367 33.4567 39.5598C33.9135 39.3828 34.304 39.0832 34.5787 38.6988C34.8534 38.3144 35 37.8625 35 37.4002C35 36.7802 34.7366 36.1857 34.2678 35.7473C33.7989 35.3089 33.163 35.0627 32.5 35.0627ZM17.5 35.0627H10C9.33696 35.0627 8.70107 35.3089 8.23223 35.7473C7.76339 36.1857 7.5 36.7802 7.5 37.4002C7.5 38.0201 7.76339 38.6147 8.23223 39.0531C8.70107 39.4914 9.33696 39.7377 10 39.7377H17.5C18.163 39.7377 18.7989 39.4914 19.2678 39.0531C19.7366 38.6147 20 38.0201 20 37.4002C20 36.7802 19.7366 36.1857 19.2678 35.7473C18.7989 35.3089 18.163 35.0627 17.5 35.0627ZM40 35.0627C39.5055 35.0627 39.0222 35.1998 38.6111 35.4566C38.2 35.7135 37.8795 36.0785 37.6903 36.5057C37.5011 36.9328 37.4516 37.4028 37.548 37.8562C37.6445 38.3096 37.8826 38.7262 38.2322 39.0531C38.5819 39.38 39.0273 39.6026 39.5123 39.6928C39.9972 39.783 40.4999 39.7367 40.9567 39.5598C41.4135 39.3828 41.804 39.0832 42.0787 38.6988C42.3534 38.3144 42.5 37.8625 42.5 37.4002C42.5 36.7802 42.2366 36.1857 41.7678 35.7473C41.2989 35.3089 40.663 35.0627 40 35.0627ZM32.5 21.0376C32.0055 21.0376 31.5222 21.1747 31.1111 21.4315C30.7 21.6884 30.3795 22.0535 30.1903 22.4806C30.0011 22.9077 29.9516 23.3777 30.048 23.8311C30.1445 24.2846 30.3826 24.7011 30.7322 25.028C31.0819 25.3549 31.5273 25.5775 32.0123 25.6677C32.4972 25.7579 32.9999 25.7116 33.4567 25.5347C33.9135 25.3578 34.304 25.0582 34.5787 24.6738C34.8534 24.2894 35 23.8374 35 23.3751C35 22.7552 34.7366 22.1606 34.2678 21.7222C33.7989 21.2839 33.163 21.0376 32.5 21.0376ZM17.5 21.0376H10C9.33696 21.0376 8.70107 21.2839 8.23223 21.7222C7.76339 22.1606 7.5 22.7552 7.5 23.3751C7.5 23.9951 7.76339 24.5896 8.23223 25.028C8.70107 25.4664 9.33696 25.7126 10 25.7126H17.5C18.163 25.7126 18.7989 25.4664 19.2678 25.028C19.7366 24.5896 20 23.9951 20 23.3751C20 22.7552 19.7366 22.1606 19.2678 21.7222C18.7989 21.2839 18.163 21.0376 17.5 21.0376ZM40 7.01253C39.5055 7.01253 39.0222 7.14963 38.6111 7.40648C38.2 7.66333 37.8795 8.0284 37.6903 8.45552C37.5011 8.88264 37.4516 9.35264 37.548 9.80607C37.6445 10.2595 37.8826 10.676 38.2322 11.0029C38.5819 11.3298 39.0273 11.5525 39.5123 11.6426C39.9972 11.7328 40.4999 11.6865 40.9567 11.5096C41.4135 11.3327 41.804 11.0331 42.0787 10.6487C42.3534 10.2643 42.5 9.81236 42.5 9.35005C42.5 8.7301 42.2366 8.13554 41.7678 7.69718C41.2989 7.25881 40.663 7.01253 40 7.01253ZM40 21.0376C39.5055 21.0376 39.0222 21.1747 38.6111 21.4315C38.2 21.6884 37.8795 22.0535 37.6903 22.4806C37.5011 22.9077 37.4516 23.3777 37.548 23.8311C37.6445 24.2846 37.8826 24.7011 38.2322 25.028C38.5819 25.3549 39.0273 25.5775 39.5123 25.6677C39.9972 25.7579 40.4999 25.7116 40.9567 25.5347C41.4135 25.3578 41.804 25.0582 42.0787 24.6738C42.3534 24.2894 42.5 23.8374 42.5 23.3751C42.5 22.7552 42.2366 22.1606 41.7678 21.7222C41.2989 21.2839 40.663 21.0376 40 21.0376ZM50 7.01253C50 5.15269 49.2098 3.36903 47.8033 2.05392C46.3968 0.738819 44.4891 0 42.5 0H7.5C5.51088 0 3.60322 0.738819 2.1967 2.05392C0.790177 3.36903 0 5.15269 0 7.01253V11.6876C0.0110265 13.4174 0.705527 15.0825 1.95 16.3626C0.705527 17.6427 0.0110265 19.3077 0 21.0376V25.7126C0.0110265 27.4425 0.705527 29.1075 1.95 30.3876C0.705527 31.6678 0.0110265 33.3328 0 35.0627V39.7377C0 41.5975 0.790177 43.3812 2.1967 44.6963C3.60322 46.0114 5.51088 46.7502 7.5 46.7502H42.5C44.4891 46.7502 46.3968 46.0114 47.8033 44.6963C49.2098 43.3812 50 41.5975 50 39.7377V35.0627C49.989 33.3328 49.2945 31.6678 48.05 30.3876C49.2945 29.1075 49.989 27.4425 50 25.7126V21.0376C49.989 19.3077 49.2945 17.6427 48.05 16.3626C49.2945 15.0825 49.989 13.4174 50 11.6876V7.01253ZM45 39.7377C45 40.3576 44.7366 40.9522 44.2678 41.3906C43.7989 41.8289 43.163 42.0752 42.5 42.0752H7.5C6.83696 42.0752 6.20107 41.8289 5.73223 41.3906C5.26339 40.9522 5 40.3576 5 39.7377V35.0627C5 34.4427 5.26339 33.8482 5.73223 33.4098C6.20107 32.9714 6.83696 32.7252 7.5 32.7252H42.5C43.163 32.7252 43.7989 32.9714 44.2678 33.4098C44.7366 33.8482 45 34.4427 45 35.0627V39.7377ZM45 25.7126C45 26.3326 44.7366 26.9271 44.2678 27.3655C43.7989 27.8039 43.163 28.0501 42.5 28.0501H7.5C6.83696 28.0501 6.20107 27.8039 5.73223 27.3655C5.26339 26.9271 5 26.3326 5 25.7126V21.0376C5 20.4177 5.26339 19.8231 5.73223 19.3847C6.20107 18.9464 6.83696 18.7001 7.5 18.7001H42.5C43.163 18.7001 43.7989 18.9464 44.2678 19.3847C44.7366 19.8231 45 20.4177 45 21.0376V25.7126ZM45 11.6876C45 12.3075 44.7366 12.9021 44.2678 13.3404C43.7989 13.7788 43.163 14.0251 42.5 14.0251H7.5C6.83696 14.0251 6.20107 13.7788 5.73223 13.3404C5.26339 12.9021 5 12.3075 5 11.6876V7.01253C5 6.39259 5.26339 5.79803 5.73223 5.35966C6.20107 4.9213 6.83696 4.67502 7.5 4.67502H42.5C43.163 4.67502 43.7989 4.9213 44.2678 5.35966C44.7366 5.79803 45 6.39259 45 7.01253V11.6876ZM32.5 7.01253C32.0055 7.01253 31.5222 7.14963 31.1111 7.40648C30.7 7.66333 30.3795 8.0284 30.1903 8.45552C30.0011 8.88264 29.9516 9.35264 30.048 9.80607C30.1445 10.2595 30.3826 10.676 30.7322 11.0029C31.0819 11.3298 31.5273 11.5525 32.0123 11.6426C32.4972 11.7328 32.9999 11.6865 33.4567 11.5096C33.9135 11.3327 34.304 11.0331 34.5787 10.6487C34.8534 10.2643 35 9.81236 35 9.35005C35 8.7301 34.7366 8.13554 34.2678 7.69718C33.7989 7.25881 33.163 7.01253 32.5 7.01253ZM17.5 7.01253H10C9.33696 7.01253 8.70107 7.25881 8.23223 7.69718C7.76339 8.13554 7.5 8.7301 7.5 9.35005C7.5 9.96999 7.76339 10.5645 8.23223 11.0029C8.70107 11.4413 9.33696 11.6876 10 11.6876H17.5C18.163 11.6876 18.7989 11.4413 19.2678 11.0029C19.7366 10.5645 20 9.96999 20 9.35005C20 8.7301 19.7366 8.13554 19.2678 7.69718C18.7989 7.25881 18.163 7.01253 17.5 7.01253Z" fill="#F5F5F4"/>
</svg>
