<svg width="193" height="82" viewBox="0 0 193 82" fill="none" xmlns="http://www.w3.org/2000/svg">
<path d="M33.33 41.78C32.079 40.9857 30.6872 40.4392 29.23 40.17C30.156 39.9216 31.0566 39.5868 31.92 39.17C33.7114 38.2599 35.2193 36.8765 36.28 35.17C37.4374 33.2371 38.0137 31.0118 37.94 28.76C37.9964 26.3284 37.3319 23.9345 36.03 21.88C34.6715 19.8677 32.7571 18.2938 30.52 17.35C27.7083 16.1858 24.6819 15.6302 21.64 15.72H0.139999V66.12H22.38C25.496 66.2053 28.5936 65.6151 31.46 64.39C33.7907 63.3793 35.7679 61.698 37.14 59.56C38.4687 57.3974 39.1458 54.8976 39.09 52.36C39.1076 50.2334 38.5736 48.1386 37.54 46.28C36.5301 44.4552 35.0836 42.9091 33.33 41.78ZM10.94 24.28H19.72C21.6449 24.1437 23.5528 24.7203 25.08 25.9C25.7001 26.4676 26.1867 27.1655 26.5048 27.9436C26.823 28.7217 26.9647 29.5606 26.92 30.4C26.9681 31.2354 26.8277 32.0708 26.5092 32.8446C26.1907 33.6183 25.7022 34.3106 25.08 34.87C23.567 36.0215 21.6867 36.5831 19.79 36.45H10.94V24.28ZM26.16 55.71C24.5446 56.8818 22.5717 57.4546 20.58 57.33H10.94V44.44H20.44C22.4694 44.3242 24.4734 44.9378 26.09 46.17C26.7753 46.7672 27.3158 47.5123 27.671 48.349C28.0261 49.1858 28.1865 50.0922 28.14 51C28.1968 51.8848 28.0476 52.7706 27.704 53.5879C27.3605 54.4052 26.8319 55.1316 26.16 55.71Z" fill="#F3F2F2"/>
<path d="M56.98 15.62C55.6508 14.4816 53.9383 13.8917 52.19 13.97C50.4755 13.8956 48.7987 14.4868 47.51 15.62C46.921 16.1565 46.4552 16.8142 46.1445 17.5478C45.8338 18.2815 45.6856 19.0737 45.71 19.87C45.6911 20.6553 45.8421 21.4354 46.1528 22.1569C46.4635 22.8784 46.9265 23.5242 47.51 24.05C48.7987 25.1833 50.4755 25.7745 52.19 25.7C53.9383 25.7783 55.6508 25.1884 56.98 24.05C57.5724 23.5291 58.044 22.8852 58.3618 22.1633C58.6796 21.4413 58.836 20.6587 58.82 19.87C58.8415 19.0703 58.6879 18.2756 58.3701 17.5415C58.0522 16.8074 57.5778 16.1516 56.98 15.62Z" fill="#F3F2F2"/>
<path d="M57.59 29.83H46.79V66.12H57.59V29.83Z" fill="#F3F2F2"/>
<path d="M94.89 38.47V29.83H64.94V38.76H82.5L64.72 57.48V66.12H95.25V57.19H76.96L94.89 38.47Z" fill="#F3F2F2"/>
<path d="M133.19 46.53C133.249 48.5124 132.856 50.4822 132.04 52.29C131.335 53.8087 130.161 55.0604 128.69 55.86C127.03 56.6938 125.187 57.0994 123.33 57.04C121.496 57.094 119.677 56.6884 118.04 55.86C116.573 55.0645 115.407 53.8106 114.72 52.29C113.933 50.4745 113.554 48.5081 113.61 46.53V15.72H102.81V46.46C102.659 50.4505 103.592 54.4074 105.51 57.91C107.228 60.8543 109.783 63.2213 112.85 64.71C116.073 66.2495 119.608 67.0263 123.18 66.98C126.794 67.0284 130.371 66.252 133.64 64.71C136.761 63.217 139.386 60.8561 141.2 57.91C143.207 54.4374 144.192 50.4681 144.04 46.46V41.03H133.24L133.19 46.53Z" fill="#F3F2F2"/>
<path d="M190.14 38.29C188.698 35.5373 186.582 33.1945 183.99 31.48C181.341 29.7785 178.247 28.9014 175.1 28.96C173.402 28.9301 171.712 29.187 170.1 29.72C168.774 30.1729 167.543 30.868 166.47 31.77C165.484 32.611 164.59 33.5528 163.8 34.58L162.58 29.83H153V81.96H163.8V61.8C165.04 63.4195 166.643 64.7247 168.48 65.61C170.58 66.5697 172.872 67.0382 175.18 66.98C178.259 67.0184 181.283 66.1677 183.89 64.53C186.516 62.8654 188.663 60.546 190.12 57.8C191.648 54.7753 192.445 51.4339 192.445 48.045C192.445 44.6561 191.648 41.3147 190.12 38.29H190.14ZM180.28 53.01C179.552 54.4068 178.442 55.5684 177.08 56.36C175.664 57.1638 174.058 57.5747 172.43 57.55C170.782 57.581 169.156 57.1701 167.72 56.36C166.347 55.5653 165.233 54.3918 164.51 52.98C163.724 51.4322 163.329 49.7156 163.36 47.98C163.33 46.2796 163.725 44.5986 164.51 43.09C165.263 41.6493 166.403 40.4476 167.803 39.6206C169.202 38.7937 170.805 38.3744 172.43 38.41C174.068 38.385 175.679 38.8217 177.08 39.67C178.434 40.5019 179.54 41.6833 180.28 43.09C181.037 44.6357 181.43 46.334 181.43 48.055C181.43 49.776 181.037 51.4743 180.28 53.02V53.01Z" fill="#F3F2F2"/>
<path d="M143.99 36.45V10.96V0.160004H102.81V10.96H133.19V36.45H143.99Z" fill="#13ABEB"/>
</svg>
