<svg width="193" height="82" viewBox="0 0 193 82" fill="none" xmlns="http://www.w3.org/2000/svg">
<g clip-path="url(#clip0_8_125)">
<path d="M33.24 41.62C31.9921 40.8198 30.599 40.2728 29.14 40.01C30.0687 39.7599 30.9724 39.4251 31.84 39.01C33.6263 38.0963 35.13 36.7135 36.19 35.01C37.3522 33.0791 37.9289 30.8523 37.85 28.6C37.9064 26.1684 37.2418 23.7745 35.94 21.72C34.5755 19.6862 32.6415 18.1001 30.38 17.16C27.577 16.0028 24.5612 15.4507 21.53 15.54H0V65.94H22.24C25.3527 66.0245 28.4469 65.4343 31.31 64.21C33.6418 63.1969 35.6216 61.5163 37 59.38C38.321 57.2145 38.9942 54.716 38.94 52.18C38.9549 50.0741 38.4243 48.0001 37.4 46.16C36.4126 44.3242 34.9827 42.7637 33.24 41.62ZM10.8 24.16H19.58C21.5078 24.0259 23.418 24.6022 24.95 25.78C25.5677 26.349 26.052 27.0474 26.3684 27.8253C26.6847 28.6032 26.8253 29.4414 26.78 30.28C26.8272 31.1143 26.6873 31.9487 26.3707 32.722C26.0541 33.4954 25.5687 34.1883 24.95 34.75C23.4333 35.8941 21.5558 36.4549 19.66 36.33H10.8V24.16ZM26.03 55.59C24.4081 56.7441 22.4357 57.299 20.45 57.16H10.8V44.28H20.3C22.3326 44.1636 24.3399 44.7771 25.96 46.01C26.6348 46.611 27.1652 47.3566 27.5115 48.1912C27.8578 49.0258 28.0111 49.9278 27.96 50.83C28.0237 51.7123 27.8827 52.5973 27.5479 53.4161C27.2131 54.2349 26.6936 54.9652 26.03 55.55V55.59Z" fill="#161615"/>
<path d="M56.84 15.41C55.5154 14.2696 53.8063 13.676 52.06 13.75C50.344 13.6772 48.6666 14.2722 47.38 15.41C46.791 15.9465 46.3252 16.6042 46.0145 17.3378C45.7038 18.0715 45.5555 18.8637 45.58 19.66C45.5598 20.444 45.7104 21.223 46.0212 21.943C46.332 22.6631 46.7956 23.3069 47.38 23.83C48.6644 24.9715 50.3434 25.567 52.06 25.49C53.8069 25.568 55.5174 24.974 56.84 23.83C57.4348 23.3133 57.9082 22.6716 58.2263 21.9508C58.5444 21.2299 58.6993 20.4477 58.68 19.66C58.7035 18.86 58.5509 18.0647 58.2329 17.3303C57.915 16.5958 57.4394 15.9403 56.84 15.41Z" fill="#161615"/>
<path d="M57.46 29.67H46.66V65.96H57.46V29.67Z" fill="#161615"/>
<path d="M94.75 38.31V29.67H64.8V38.6H82.37L64.58 57.32V65.96H95.11V57.03H76.82L94.75 38.31Z" fill="#161615"/>
<path d="M133.06 46.37C133.116 48.3532 132.719 50.323 131.9 52.13C131.193 53.644 130.024 54.8942 128.56 55.7C126.896 56.533 125.05 56.9385 123.19 56.88C121.356 56.934 119.537 56.5284 117.9 55.7C116.436 54.9045 115.273 53.6503 114.59 52.13C113.794 50.3167 113.412 48.3493 113.47 46.37V15.56H102.67V46.3C102.519 50.2905 103.452 54.2474 105.37 57.75C107.089 60.697 109.648 63.0644 112.72 64.55C115.943 66.0919 119.478 66.8688 123.05 66.82C126.644 66.8617 130.2 66.0855 133.45 64.55C136.571 63.057 139.196 60.6961 141.01 57.75C143.025 54.2803 144.014 50.3096 143.86 46.3V40.87H133.06V46.37Z" fill="#161615"/>
<path d="M190.01 38.16C188.567 35.4049 186.447 33.0616 183.85 31.35C181.202 29.6468 178.108 28.7696 174.96 28.83C173.262 28.8001 171.572 29.057 169.96 29.59C168.638 30.0301 167.408 30.7079 166.33 31.59C165.344 32.431 164.45 33.3728 163.66 34.4L162.44 29.65H152.86V81.77H163.66V61.64C164.9 63.2595 166.503 64.5647 168.34 65.45C170.441 66.4087 172.732 66.8771 175.04 66.82C178.119 66.8584 181.143 66.0077 183.75 64.37C186.376 62.7054 188.523 60.386 189.98 57.64C191.577 54.6385 192.382 51.2794 192.32 47.88C192.371 44.4983 191.577 41.1573 190.01 38.16ZM180.14 52.88C179.414 54.2787 178.304 55.441 176.94 56.23C175.524 57.0338 173.918 57.4447 172.29 57.42C170.642 57.4496 169.016 57.0388 167.58 56.23C166.204 55.4345 165.089 54.2568 164.37 52.84C163.586 51.2915 163.191 49.5754 163.22 47.84C163.195 46.1402 163.59 44.4604 164.37 42.95C165.128 41.5163 166.263 40.3165 167.653 39.4796C169.042 38.6427 170.633 38.2005 172.255 38.2005C173.877 38.2005 175.468 38.6427 176.857 39.4796C178.247 40.3165 179.382 41.5163 180.14 42.95C180.897 44.4957 181.29 46.194 181.29 47.915C181.29 49.6361 180.897 51.3343 180.14 52.88Z" fill="#161615"/>
<path d="M143.85 36.29V10.8V0H102.67V10.8H133.06V36.29H143.85Z" fill="#13ABEB"/>
</g>
<defs>
<clipPath id="clip0_8_125">
<rect width="192.31" height="81.8" fill="white"/>
</clipPath>
</defs>
</svg>
