<svg width="50" height="50" viewBox="0 0 50 50" fill="none" xmlns="http://www.w3.org/2000/svg">
<g clip-path="url(#clip0_22_48)">
<path d="M49.2188 22.1094L28.6719 1.48438C27.6563 0.546875 26.4062 0 25 0C23.5938 0 22.3438 0.546875 21.3281 1.48438L0.78125 22.1094C0.46875 22.4219 0.234375 22.8906 0.234375 23.3594C0.234375 23.8281 0.390625 24.2969 0.78125 24.6094C1.40625 25.2344 2.57812 25.2344 3.28125 24.6094L23.8281 3.98438C24.1406 3.67188 24.6094 3.51563 25 3.51563C25.4688 3.51563 25.8594 3.67188 26.1719 3.98438L46.7969 24.5313C47.4219 25.1563 48.5938 25.1563 49.2969 24.5313C49.6094 24.2188 49.8438 23.75 49.8438 23.2813C49.7656 22.8906 49.6094 22.4219 49.2188 22.1094ZM35.7031 38.2813L26.0938 28.6719C25.3906 27.9688 25.0781 26.9531 25.1563 25.9375C25.3906 24.1406 24.7656 22.3438 23.5156 21.0156C22.5 20 21.1719 19.375 19.7656 19.2969L20.7031 20.2344C22.4219 21.9531 22.4219 24.8438 20.7031 26.5625C19.8438 27.4219 18.75 27.8906 17.5 27.8906C16.3281 27.8906 15.1562 27.4219 14.375 26.5625L13.4375 25.625C13.5156 27.0313 14.1406 28.3594 15.1562 29.375C16.4844 30.7031 18.2813 31.3281 20.0781 31.0156C20.2344 31.0156 20.3906 31.0156 20.4688 31.0156C21.3281 31.0156 22.1875 31.3281 22.7344 31.9531L32.5 41.7188C33.4375 42.6563 35 42.5781 35.8594 41.6406C36.7188 40.7031 36.6406 39.2188 35.7031 38.2813ZM34.5312 40.3906C34.375 40.5469 34.1406 40.625 33.9062 40.625C33.6719 40.625 33.5156 40.5469 33.3594 40.3906L32.6562 39.6875C32.3438 39.375 32.3438 38.8281 32.6562 38.5156C32.9688 38.2031 33.5156 38.2031 33.8281 38.5156L34.5312 39.2188C34.8438 39.5313 34.8438 40.0781 34.5312 40.3906ZM35.7031 38.2813L26.0938 28.6719C25.3906 27.9688 25.0781 26.9531 25.1563 25.9375C25.3906 24.1406 24.7656 22.3438 23.5156 21.0156C22.5 20 21.1719 19.375 19.7656 19.2969L20.7031 20.2344C22.4219 21.9531 22.4219 24.8438 20.7031 26.5625C19.8438 27.4219 18.75 27.8906 17.5 27.8906C16.3281 27.8906 15.1562 27.4219 14.375 26.5625L13.4375 25.625C13.5156 27.0313 14.1406 28.3594 15.1562 29.375C16.4844 30.7031 18.2813 31.3281 20.0781 31.0156C20.2344 31.0156 20.3906 31.0156 20.4688 31.0156C21.3281 31.0156 22.1875 31.3281 22.7344 31.9531L32.5 41.7188C33.4375 42.6563 35 42.5781 35.8594 41.6406C36.7188 40.7031 36.6406 39.2188 35.7031 38.2813ZM34.5312 40.3906C34.375 40.5469 34.1406 40.625 33.9062 40.625C33.6719 40.625 33.5156 40.5469 33.3594 40.3906L32.6562 39.6875C32.3438 39.375 32.3438 38.8281 32.6562 38.5156C32.9688 38.2031 33.5156 38.2031 33.8281 38.5156L34.5312 39.2188C34.8438 39.5313 34.8438 40.0781 34.5312 40.3906ZM35.7031 38.2813L26.0938 28.6719C25.3906 27.9688 25.0781 26.9531 25.1563 25.9375C25.3906 24.1406 24.7656 22.3438 23.5156 21.0156C22.5 20 21.1719 19.375 19.7656 19.2969L20.7031 20.2344C22.4219 21.9531 22.4219 24.8438 20.7031 26.5625C19.8438 27.4219 18.75 27.8906 17.5 27.8906C16.3281 27.8906 15.1562 27.4219 14.375 26.5625L13.4375 25.625C13.5156 27.0313 14.1406 28.3594 15.1562 29.375C16.4844 30.7031 18.2813 31.3281 20.0781 31.0156C20.2344 31.0156 20.3906 31.0156 20.4688 31.0156C21.3281 31.0156 22.1875 31.3281 22.7344 31.9531L32.5 41.7188C33.4375 42.6563 35 42.5781 35.8594 41.6406C36.7188 40.7031 36.6406 39.2188 35.7031 38.2813ZM34.5312 40.3906C34.375 40.5469 34.1406 40.625 33.9062 40.625C33.6719 40.625 33.5156 40.5469 33.3594 40.3906L32.6562 39.6875C32.3438 39.375 32.3438 38.8281 32.6562 38.5156C32.9688 38.2031 33.5156 38.2031 33.8281 38.5156L34.5312 39.2188C34.8438 39.5313 34.8438 40.0781 34.5312 40.3906ZM35.7031 38.2813L26.0938 28.6719C25.3906 27.9688 25.0781 26.9531 25.1563 25.9375C25.3906 24.1406 24.7656 22.3438 23.5156 21.0156C22.5 20 21.1719 19.375 19.7656 19.2969L20.7031 20.2344C22.4219 21.9531 22.4219 24.8438 20.7031 26.5625C19.8438 27.4219 18.75 27.8906 17.5 27.8906C16.3281 27.8906 15.1562 27.4219 14.375 26.5625L13.4375 25.625C13.5156 27.0313 14.1406 28.3594 15.1562 29.375C16.4844 30.7031 18.2813 31.3281 20.0781 31.0156C20.2344 31.0156 20.3906 31.0156 20.4688 31.0156C21.3281 31.0156 22.1875 31.3281 22.7344 31.9531L32.5 41.7188C33.4375 42.6563 35 42.5781 35.8594 41.6406C36.7188 40.7031 36.6406 39.2188 35.7031 38.2813ZM34.5312 40.3906C34.375 40.5469 34.1406 40.625 33.9062 40.625C33.6719 40.625 33.5156 40.5469 33.3594 40.3906L32.6562 39.6875C32.3438 39.375 32.3438 38.8281 32.6562 38.5156C32.9688 38.2031 33.5156 38.2031 33.8281 38.5156L34.5312 39.2188C34.8438 39.5313 34.8438 40.0781 34.5312 40.3906ZM35.7031 38.2813L26.0938 28.6719C25.3906 27.9688 25.0781 26.9531 25.1563 25.9375C25.3906 24.1406 24.7656 22.3438 23.5156 21.0156C22.5 20 21.1719 19.375 19.7656 19.2969L20.7031 20.2344C22.4219 21.9531 22.4219 24.8438 20.7031 26.5625C19.8438 27.4219 18.75 27.8906 17.5 27.8906C16.3281 27.8906 15.1562 27.4219 14.375 26.5625L13.4375 25.625C13.5156 27.0313 14.1406 28.3594 15.1562 29.375C16.4844 30.7031 18.2813 31.3281 20.0781 31.0156C20.2344 31.0156 20.3906 31.0156 20.4688 31.0156C21.3281 31.0156 22.1875 31.3281 22.7344 31.9531L32.5 41.7188C33.4375 42.6563 35 42.5781 35.8594 41.6406C36.7188 40.7031 36.6406 39.2188 35.7031 38.2813ZM34.5312 40.3906C34.375 40.5469 34.1406 40.625 33.9062 40.625C33.6719 40.625 33.5156 40.5469 33.3594 40.3906L32.6562 39.6875C32.3438 39.375 32.3438 38.8281 32.6562 38.5156C32.9688 38.2031 33.5156 38.2031 33.8281 38.5156L34.5312 39.2188C34.8438 39.5313 34.8438 40.0781 34.5312 40.3906ZM42.1094 1.95313H40.3125C39.375 1.95313 38.5938 2.73438 38.5938 3.67188V8.90625C38.5938 8.98438 38.5938 8.98438 38.5938 9.0625L43.9062 14.375V3.67188C43.9062 2.73438 43.125 1.95313 42.1094 1.95313Z" fill="#F5F5F4"/>
<path d="M47.2656 48.3594H45.0781V25.4687C45.0781 25.3906 45.0781 25.3125 45.1562 25.2344L25 5.15625L4.92188 25.2344C4.92188 25.3125 5 25.3906 5 25.4687V48.3594H3.51562C3.04687 48.3594 2.65625 48.75 2.65625 49.2188C2.73438 49.6094 3.125 50 3.51562 50H47.2656C47.7344 50 48.125 49.6094 48.125 49.1406C48.125 48.75 47.7344 48.3594 47.2656 48.3594ZM11.7188 24.6875C11.7969 23.9844 12.3438 23.4375 13.0469 23.4375C13.3594 23.4375 13.75 23.5938 13.9844 23.8281L15.4688 25.3125C16.5625 26.4062 18.3594 26.4062 19.4531 25.3125C20.5469 24.2188 20.5469 22.4219 19.4531 21.3281L17.9688 19.8437C17.5781 19.4531 17.5 18.9062 17.6563 18.4375C17.8125 17.9688 18.2813 17.6562 18.8281 17.5781C21.0156 17.4219 23.125 18.2031 24.6094 19.7656C26.25 21.4062 27.0312 23.75 26.7969 26.0938C26.7188 26.5625 26.875 27.1094 27.2656 27.4219L36.875 37.0313C38.4375 38.5938 38.5156 41.0938 37.0312 42.6562C36.25 43.4375 35.2344 43.9062 34.1406 43.9062C33.0469 43.9062 32.1094 43.5156 31.3281 42.7344L21.6406 33.125C21.25 32.7344 20.7812 32.5781 20.3125 32.6562C17.9688 32.9688 15.625 32.1875 13.9844 30.4688C12.4219 28.9844 11.6406 26.875 11.7188 24.6875Z" fill="#F5F5F4"/>
</g>
<defs>
<clipPath id="clip0_22_48">
<rect width="50" height="50" fill="white"/>
</clipPath>
</defs>
</svg>
