<svg width="50" height="46" viewBox="0 0 50 46" fill="none" xmlns="http://www.w3.org/2000/svg">
<g clip-path="url(#clip0_22_67)">
<path d="M47.8104 41.0984H34.1032C32.8856 41.0984 31.8986 42.1035 31.8986 43.3433C31.8986 44.5832 32.8856 45.5883 34.1032 45.5883H47.8104C49.028 45.5883 50.015 44.5832 50.015 43.3433C50.015 42.1035 49.028 41.0984 47.8104 41.0984Z" fill="#F5F5F4"/>
<path d="M47.8104 31.1226H37.7774C36.5599 31.1226 35.5729 32.1276 35.5729 33.3675C35.5729 34.6073 36.5599 35.6124 37.7774 35.6124H47.8104C49.028 35.6124 50.015 34.6073 50.015 33.3675C50.015 32.1276 49.028 31.1226 47.8104 31.1226Z" fill="#F5F5F4"/>
<path d="M47.7954 21.9436H41.8416C40.6241 21.9436 39.6371 22.9487 39.6371 24.1885C39.6371 25.4284 40.6241 26.4335 41.8416 26.4335H47.7954C49.013 26.4335 50 25.4284 50 24.1885C50 22.9487 49.013 21.9436 47.7954 21.9436Z" fill="#F5F5F4"/>
<path d="M16.7516 45.5882C15.1408 45.5867 13.5587 45.1527 12.1637 44.3297C10.7688 43.5068 9.60989 42.3238 8.80319 40.8992L1.2147 27.4755C0.419175 26.0492 0.000823975 24.4358 0.000823975 22.7941C0.000823975 21.1524 0.419175 19.539 1.2147 18.1127L8.80319 4.68908C9.60989 3.26448 10.7688 2.08146 12.1637 1.25851C13.5587 0.435563 15.1408 0.00157002 16.7516 0L31.9286 0C33.5368 0.00425101 35.1158 0.439515 36.5079 1.26233C37.9 2.08515 39.0565 3.26672 39.862 4.68908L45.8608 15.2012C46.0173 15.4777 46.1145 15.785 46.1459 16.1028C46.1773 16.4206 46.1422 16.7416 46.0429 17.0445C45.9436 17.3474 45.7824 17.6252 45.57 17.8596C45.3577 18.0939 45.0989 18.2795 44.811 18.4039C44.541 18.5232 44.2503 18.5857 43.9562 18.5877C43.5594 18.5954 43.1678 18.4943 42.8223 18.2949C42.4768 18.0954 42.1899 17.805 41.9916 17.4538L35.9928 6.92635C35.5728 6.18931 34.9709 5.57779 34.2472 5.15292C33.5234 4.72805 32.7032 4.5047 31.8686 4.50519H16.7516C15.9166 4.50315 15.0959 4.72584 14.3719 5.15087C13.6479 5.5759 13.0462 6.18826 12.6274 6.92635L5.03894 20.3653C4.61873 21.1027 4.39734 21.9408 4.39734 22.7941C4.39734 23.6474 4.61873 24.4855 5.03894 25.2229L12.6274 38.6619C13.0455 39.4018 13.6466 40.0164 14.3704 40.444C15.0943 40.8716 15.9155 41.0973 16.7516 41.0984H26.0047C26.5561 41.145 27.0702 41.4016 27.4449 41.8175C27.8196 42.2334 28.0276 42.778 28.0276 43.3433C28.0276 43.9086 27.8196 44.4532 27.4449 44.8691C27.0702 45.285 26.5561 45.5416 26.0047 45.5882H16.7516Z" fill="#F5F5F4"/>
<path d="M24.955 31.7815C29.8252 31.7815 33.7732 27.7474 33.7732 22.7711C33.7732 17.7948 29.8252 13.7607 24.955 13.7607C20.0848 13.7607 16.1368 17.7948 16.1368 22.7711C16.1368 27.7474 20.0848 31.7815 24.955 31.7815Z" fill="#F5F5F4"/>
</g>
<defs>
<clipPath id="clip0_22_67">
<rect width="50" height="45.5882" fill="white"/>
</clipPath>
</defs>
</svg>
